<mxfile host="Electron" modified="2024-02-17T05:30:25.661Z" agent="Mozilla/5.0 (Windows NT 10.0; Win64; x64) AppleWebKit/537.36 (KHTML, like Gecko) draw.io/23.0.2 Chrome/120.0.6099.109 Electron/28.1.0 Safari/537.36" etag="bAdjmIVcd-s6ijgNo9VA" version="23.0.2" type="device" pages="2">
  <diagram name="Part3" id="2Bk5H1WW2bejU21s4Sab">
    <mxGraphModel dx="1877" dy="629" grid="1" gridSize="10" guides="1" tooltips="1" connect="1" arrows="1" fold="1" page="1" pageScale="1" pageWidth="827" pageHeight="1169" math="0" shadow="0">
      <root>
        <mxCell id="0" />
        <mxCell id="1" parent="0" />
        <UserObject label="https://youtu.be/sjkl6vVU_Gg?si=N1JcRGKODgtGfFm6" link="https://youtu.be/sjkl6vVU_Gg?si=N1JcRGKODgtGfFm6" id="BgiR5zi2WwaI1OMkJMpC-1">
          <mxCell style="text;whiteSpace=wrap;fontSize=16;" parent="1" vertex="1">
            <mxGeometry x="-800" y="40" width="560" height="40" as="geometry" />
          </mxCell>
        </UserObject>
        <mxCell id="BgiR5zi2WwaI1OMkJMpC-2" value="&lt;p style=&quot;line-height: 208%;&quot;&gt;&lt;font style=&quot;font-size: 16px;&quot;&gt;&lt;span style=&quot;white-space: pre;&quot;&gt;&#x9;&lt;/span&gt;1. Create a photo list (ItemsRepeater)&lt;br&gt;&lt;span style=&quot;white-space: pre;&quot;&gt;&#x9;&lt;/span&gt;2. Add Thumbnail Service with IMemoryCache&lt;br&gt;&lt;span style=&quot;white-space: pre;&quot;&gt;&#x9;&lt;/span&gt;3. Add Metadata Service with MetadataExtractor and Humanizer&lt;br&gt;&lt;span style=&quot;white-space: pre;&quot;&gt;&#x9;&lt;/span&gt;4. Create PhotoViewModelBuilder&lt;br&gt;&lt;span style=&quot;white-space: pre;&quot;&gt;&#x9;&lt;/span&gt;5. Add style for HeaderedContenetControl&lt;br&gt;&lt;/font&gt;&lt;/p&gt;" style="rounded=0;whiteSpace=wrap;html=1;align=left;" parent="1" vertex="1">
          <mxGeometry x="-800" y="80" width="760" height="160" as="geometry" />
        </mxCell>
        <mxCell id="BgiR5zi2WwaI1OMkJMpC-3" value="&lt;font style=&quot;font-size: 16px;&quot;&gt;Create a photo list (ItemsRepeater)&lt;/font&gt;" style="rounded=1;whiteSpace=wrap;html=1;" parent="1" vertex="1">
          <mxGeometry x="-800" y="280" width="360" height="40" as="geometry" />
        </mxCell>
        <mxCell id="BgiR5zi2WwaI1OMkJMpC-4" value="&lt;font style=&quot;font-size: 16px;&quot;&gt;Add Thumbnail Service with IMemoryCache&lt;/font&gt;" style="rounded=1;whiteSpace=wrap;html=1;" parent="1" vertex="1">
          <mxGeometry x="-800" y="330" width="360" height="40" as="geometry" />
        </mxCell>
        <mxCell id="BgiR5zi2WwaI1OMkJMpC-6" value="ElementPreaded는 요소를 사용할 준비가 될 때마다 발생합니다. 이는 새로 생성된 요소뿐만 아니라 이미 존재하고 재활용 큐에서 재사용되고 있는 요소에 대해 발생합니다." style="text;whiteSpace=wrap;fontSize=16;fontFamily=Courier New;" parent="1" vertex="1">
          <mxGeometry x="-800" y="390" width="760" height="60" as="geometry" />
        </mxCell>
        <mxCell id="BgiR5zi2WwaI1OMkJMpC-7" value="&lt;!-- xmlns:muxc=&quot;using:Microsoft.UI.Xaml.Controls&quot; --&gt;&#xa;&lt;UserControl ...&gt;&#xa;    ...&#xa;    &lt;ScrollViewer&gt;&#xa;        &lt;muxc:ItemsRepeater ItemsSource=&quot;{x:Bind Items}&quot;&#xa;                            ItemTemplate=&quot;{StaticResource MyTemplate}&quot;&#xa;                            ElementPrepared=&quot;OnElementPrepared&quot;&#xa;                            ElementIndexChanged=&quot;OnElementIndexChanged&quot;&#xa;                            ElementClearing=&quot;OnElementClearing&quot;&gt;&#xa;        &lt;/muxc:ItemsRepeater&gt;&#xa;    &lt;/ScrollViewer&gt;&#xa;    ...&#xa;&lt;/UserControl&gt;" style="text;whiteSpace=wrap;fontSize=16;" parent="1" vertex="1">
          <mxGeometry x="-800" y="450" width="760" height="270" as="geometry" />
        </mxCell>
        <mxCell id="BgiR5zi2WwaI1OMkJMpC-8" value="interface ISelectable&#xa;{&#xa;    int SelectionIndex { get; set; }&#xa;    void UnregisterSelectionModel(SelectionModel selectionModel);&#xa;    void RegisterSelectionModel(SelectionModel selectionModel);&#xa;}&#xa;private void OnElementPrepared(ItemsRepeater sender, ElementPreparedEventArgs args)&#xa;{&#xa;    var selectable = args.Element as ISelectable;&#xa;    if (selectable != null)&#xa;    {&#xa;        // Wire up this item to recognize a &#39;select&#39; and listen for programmatic&#xa;        // changes to the selection model to know when to update its visual state.&#xa;        selectable.SelectionIndex = args.Index;&#xa;        selectable.RegisterSelectionModel(this.SelectionModel);&#xa;    }&#xa;}&#xa;private void OnElementIndexChanged(ItemsRepeater sender, ElementIndexChangedEventArgs args)&#xa;{&#xa;    var selectable = args.Element as ISelectable;&#xa;    if (selectable != null)&#xa;    {&#xa;        // Sync the ID we use to notify the selection model when the item&#xa;        // we represent has changed location in the data source.&#xa;        selectable.SelectionIndex = args.NewIndex;&#xa;    }&#xa;}&#xa;private void OnElementClearing(ItemsRepeater sender, ElementClearingEventArgs args)&#xa;{&#xa;    var selectable = args.Element as ISelectable;&#xa;    if (selectable != null)&#xa;    {&#xa;        // Disconnect handlers to recognize a &#39;select&#39; and stop&#xa;        // listening for programmatic changes to the selection model.&#xa;        selectable.UnregisterSelectionModel(this.SelectionModel);&#xa;        selectable.SelectionIndex = -1;&#xa;    }&#xa;}" style="text;whiteSpace=wrap;fontSize=16;" parent="1" vertex="1">
          <mxGeometry x="-798" y="730" width="770" height="750" as="geometry" />
        </mxCell>
        <mxCell id="BgiR5zi2WwaI1OMkJMpC-9" value="" style="shape=image;verticalLabelPosition=bottom;labelBackgroundColor=default;verticalAlign=top;aspect=fixed;imageAspect=0;image=data:image/png,iVBORw0KGgoAAAANSUhEUgAAA6QAAABZCAYAAAApW+mHAAAAAXNSR0IArs4c6QAAAARnQU1BAACxjwv8YQUAAAAJcEhZcwAADsMAAA7DAcdvqGQAACNTSURBVHhe7d17cFzXfR/wHwGQ4EMUadJYEIK4Mi1SsrSCDUmU5I2U2oVTeGJM/MAkdafoTAf/cAZjjDttZ7b9Kwgy7T+YxJk2SPFHOsF0JpikMx7UnoZxijjIqI29loa2Ya3WjOSwpUBBMHYpURRfEh9gz+/cx55777mv3b24i8X3Y18RwN7nuefee37ncXfXmTNn7hMAAAAAAADAFusw/wUAAAAAAADYUghIAQAAAAAAIBUISAEAAAAAACAVCEgBAAAAAAAgFQhIAQAAAAAAIBUISAEAAAAAACAVCEgBAAAAAAAgFQhIAQAAAAAAIBW7zpw5c9/8OREdf9dj/tSaNl+qmj8BAAAAAADAVkILKQAAAAAAAKQCASkAAAAAAACkAgEpAAAAAAAApAIBKQAAAAAAAKQCASkAAAAAAACkAm/ZxVt2AQBaxr59+6ivr48y2UfpYOYh2v+xo9S5p5tu37xBN96r0rXKGm1cukiVjQ366KOPzKUAAABgu0JA2qIBaX5ilsZy4ofqMs1ML9Kq8eftLT9Bs/KgWJkWJueoaP4GhrY8700QJ12QhtvXoUOH6NQTT9KJp/N0oeMovXZlky58cI+u3r5PR/d20KMHO+m5j3fQkQ8u0cWVV+nCL96g69evm0sDAADsDHZZh4WUd7KjU1QYMuOxJs7bTOiymwA+mbOzs/Y0NZo1P3HL04Qy3+xE3vx7G3IEow3g9ahppk5To+SX0pAEV/6V0xT5ZvcdAtd/ffbu3Uv5l36VHn5hmP703cP0+69/SN956yMqXblLqzfu0U/fvUPfvvgh/Yef3aLv3+mnU//o1+nTTz8jl2sOPh8T4r914ntTPfeg7ChNNbJdaFNKfmxmHkF+A9j2uJwxlhHB4uQkTU7O0DINUcGnDCEDzIGSOe8kLVSaM2+zoYU0gRZSeUKt2gXmU8Pgma+8QJNz7dlmWKvJ0bSM8gOyMES0PEPTiyH1MEGBbb01OXG2D5KjZs6jKpJympqZlNup1RPXf3ydnZ00ODhI/c9/gf7rOwfoxyL4vOfzZDq0p4Pu379Pnz+2h764r0JvvbpMv3jzTbpz5445h5cnrVX2+eEAYJBWgnpu8P1neEOfB3WfRblfyftPLy2hx0iNeU/uSeBe0lo4z42RM4dYx6zkx8h5RLc+Q9V6vkVZl53+qrBz4b/tGr+eUVkanSqQ3yUqbYN7P8DWMK6X3qVJsosMvte1cV2KC6/J8zYfWkiTVK2KW7jQM0CnPdXmWTo9wHdfMU/bD2PNUl/G/LG84r0APA++KPjhaNTg2FNdD6t6t79zOYJRDqLUc8A1dRiWbcD1H1lPTw89+ezz9JfvP0Cvv3/XNxjlbrtfP7mffuORfbTy3l0633mMjp96ko4fP27Oobe6OF3LowtlZ75NspBbnHNulwvVTdouB9ncsh5Yec2FCVcrPV+/rd0ab9yTK6JQNDnZjGCUC1ncCyFuq6C1nLvXBxcGzV4N5uTuBWGdG/fk7S1RpDkrP8hpQYRsFVpv6Jg1z0YxRa1slfteGKCSex0zJRooBOU397G4Jz62YGV5zn0mBKMA8WX7KCOuvBW14L16jkrVHA26r+U48yYAAWmiKlQxSqQ04C6RZk+TUR4V8xh/AWh9+Qk7GOUad2+L3iotTrdzi0YcuP6jeuqpp+jNOxyM3qObd/XR6JHuDpp48iB9c+BB+reDh+iF3m565fJdurK/l5555hlzrnBZrh3L9ImwIj65rEIGd1bA4d9lIDnVKmWG/bsJ50e2YWWbrlDELc1xu0PzMvLchLXa6eUn9MvlJ7wteT1DhYCu+TWh8/GxVzdozfx16xkVZeUFzT18dZGmF8qUC8hvALAVVulcqapci1kaHedefme9rZj9vdQT9Z4SZ94EdJn/QiI2aKWUoZx4evUMnKasuMNb9/js6QFZUKiWVmhjIOd58AV1UXS0UAl2VxzBsdxSLxXkL2o3GV3XGH1XHG83N/d84evyrCM3JgsIvH8LpQEaUz7jh/WsuKYa67rItdpWQcLbPUhNu6oozHHLjEW/fe8xqunNnOdqnUbUApDmWILS1f+8RztvzdwXL7EPw+baxPrn9TM5abp+udPPop4b5jefmFM5x4LruHRpGDdd3PvN+7LUW/A5N37qv/4NcfPeOTqtzm8dl/sc6I63nvxl318UgXnM/0Vm3ML5/du76dodIxjdJf9LZIWmh/d00DdyB+mfnTpA3Z0d9IP1m/SLq3fo8oebdOvQAeo72mfOGSZPI3Jfhmgkv1jrlmTL0ZgIYsa01wEX1jlVassW5yZrxyO77Jo/b5VKiUoZboEX+dGdIcV5H84s03J5iMRu2xz7vANUl5epMjTkc4354LTzXcCZN6z87b7GmXq92vP19ovf3CfLIO8LlaUI95ZW5Lova5VpxfwJAOrHvX5mSNxTZKHVea+JKtPH4Wy0ZeLMW6/UW0h37dpFnV2dtGffHuoQBQ23rt2d1Ckmno9LKV17uqhbzLt3vzF1i4nn4b/v2bfb/rv6+e7u9OLutXMl8fgSHN32at31Sufi1EUYXYjcZUAOpLzdaAZo3D0jF0xn3YVO1kNDrq44XPB0BiouMdaVDGM7duuEmIyaZ+42ZHUNEoVLZUe4QGAkCReMJ2m+JP/sz+cYZeCqPUCR5u4HsgjA1Rrx0HTVqSutk9iXfuo1Z6+WzoXfmriArukO7W0liJmvQ44rWITlNfvN++Levyjqvv7rynuu+fm4JiY8FQKe4603f9kJUqZlq592btjTvdE4Vn5gampvTb29vbRxt4uui4B0b+cueuRgF/XsE/d18UjgMaPfHDCC0b3iD3/z9k36L+VrtPLuHareuke39xyghx56yFxTEA66xygjHtzcfTY3puvCadwbdF1Fs6PjNFCap+npBRI3Fs2ywWTrqrb7toY8J1FeELZOIovR0Ih3bzi4ERlMzOHE90FPHrJbE3myjo3Ti8+/8a/adVWuw55fTJ5MYlzT1ufqx0HLys9kfjUqBrhVdFTcp2Trc8+QKHw55w9kdpeeXnSnQBhxvONiH6plKpvZWlWcc+aNVfsa7xV3SH/95s2z7Gj6VZmtk76fbwWz5WVMk/c4T4rzUF4Kqoyzrh+/KflxaADtz7gnj9O8fW3Ni9/i9iKpxBgbEGfeeqUekHLA+PDjx+ifjL9Ep05/gg4c2md+Ynjs+U/So09nab/4++7u3fTU5x6nXxl9ll76recoL/594TcG6eFP9dGjg1ka/MKT9OJvnqbP/fMX6Av/8kV66Z8+T/mvPkOPi3WkZnWRlmR0pHTby48Yhb9qic7FOMdqFyJ1rMWMbtAet/xxwct+CJgPWfmh+tCojfmrFdDyNGhuiGtdrO3UCmnR12WM3VLGFXILCs87vUhF+VltXIm9LW+zRUwiKJ1ZNgoJVgFZFLiM4Itrt42HorFvftuvHaMzDcz5PQVvwZHmtfXKmnP5U1i66sQ5b4ok9kV2pYvJOt+ufa7tRyP5WndcIUKXF+ltN40o6W3lp7jquv6bmPdy4ljCjrfh/DVHi4tL5rpd3ZOtYxWfLvlncvmSIsvnH+qmP/7cUfrtZw/R00f30L8WwejXTxrB6Pcv3aQ/EsHoz0QwymRFpVh2c3NT/u6PAyQRdFcWjFpkEazMLGdE0BPtrdCy8qZ3yayB5vvLBg3HGpPILbPifFY13bclMwATU9R4y7LKae/JE7y9SmCaW2QQKN9jYZ37FepTVpYZHiGa578b9waevyDW7cgrmTElUDRaysQM5ueTtNJnFJTClpX3ZHmtmXlRPCcW58S/6vjbhp8PwYwuueI5MX+WNsy/BbF6O3jfjyCuBq5AMs/rWI6fPcrLQtz4WqFlOuv43MwXmoq9xtTym7syzzgHxnhRa9/lZI4rTTj5ASCMea9Qe6mtLs7LN+166ibXNqgaUllmizNvAlIPSLlVs+9URgSOT9PpX/80HXs0Q7s6rA5bRCeffYROfOa4DFR37+mi3Iun6NRzn6C+kxk6+tBh+tixQ7Tv4F46cHgfHc48SL0nesQyJ+hpUag8/qljdETM88CRA+ba0lFcMYtqQyOyAJM3I4FIrUw2ZwChPhT4AeJ9SLgKgNaYNaG8oNZSrtLivFXY9g5c1rZS1bmu5jIe7laBhydHdwVzvAsXkGVLqmzNcXa1CqQco1qoqI1H6iHZ80olCky1G0SRzNOupU1XnXrTOol9iYtbKBwZ06h9l+ybXsx87XdcUW+iYenil952YBlf7Ou/nrznuN7V4/L7u6nua9kdYBbprBnBWsfJrGPVFdZV77zzDj20+y4d3L2LHjvURYe7O+grJw7Q/D8+SmOPP0D7zGB09vVr9JoZjLLMvg7ac/s6ra0F9TQRQbfVMqpkKFnwXqiI+0NwYCm7KZOrKzLfX2RQGi2gzY4OU65aonmRpqSkT02tMkBuhtcfWFGl4vPqDHTl9kLS3GAEylYlnaFIi+qGS2eV/dDNb+YVR1BcpQ3llBQXuVUt6rIpyhtj5KvL8xHSnvOV1ctEnD/PzcrNeBbpe3OIIF7b+mjmi3orxHzV8pu2m5/Mf7VnqzFFyY+1QNdvCurNkhvTL2NMcSqAAEBaXacKZUj2uLXI575rnD6LM28CUg9I2ebdTaq89R498lQ/fXIwKwPMID//wT/QX/3xy/Ttme/Rd//TX9P5H/4D/USUFpf+5P/QX/zRMr36Fyv0f392if76v/2AFn/vr+hH3/2puWRKiivi9s+4YGcVwN0FuhBK61SkpnP3wGQerCx/cBYU9GqFS2Y/JKzuALHWlSLZClI7Du2LGrZUSLrqJJbWdeyLvFkZorVIOrvt8eTpIhw3X7usbTS3mJZIejfj+g/j9yKCsBcU1Hu8mvXaXRetADZrjcOr0rKz2cfj4sWL1L/7Izq8Zxf94evX6c9+cZ0qt+6KwLSLujp2yWD0D0UwWnqvFoxyteXDBzpp/53rdOnSJeOPWiLomfYpeMtunVaAxN391WDJwGMuta1y7qCR16UbWyzSYZwDsXke58kVG6LQ3uQaoOJZNdA1xrqGpbkkr7/gt7o6rku/+eWbGK2KEr63iN3hikD1OCMtmyLutszRaNlsRQ+idnOXLbfefMMcPRxkBamzwsZQqzAJjWkT471Xh0/uANH9ll3ukVELfK1Jn7bGNarO5530aQyw43CZomeIxpXKHR5SMmQFjo4hH+b9eLxWtuOX3dkvQIozb8JaIyC9t0nvb7xP/+9nq/TA4X301EuPmZ+0i1rLRGZ4WBTXhEi113rG4OKYuCle/hDtwS9bD8RDwNFtksfwcAEj5rpSY3fTNWjHxUTg9yr6egoPgemqk2Bax94XJR/zfJphawqj216OgxGlJVvbDddUV75OTDPTu/7rv5l5T6uZ+UsGW8aP/Pa/vN2VcSm0Iuj8+fN0qus6PXW4gw507aJvvXaN/vSN67R24y4trd6k/yyC0deVYJQd2L2LXjjaQUduVahUChsQzqIUusNbYbjFVLes/rIR2yzwV5jUAtfinNFNNailKDb11fyyO1fE4SB2hURzWfeWBeKX2In08b2ntA67NT9n7rM9rtrVsskFOLMLrQw4I73gTLArptQWCA5Gla7kTWH2ClLypjX55zl3MGlNHFR6eyMZEwJEgHTw9bpAFaUHlTEUQn9N8v14oWKOwRcT9/jxu9/EmbfZWiIgZZv37tP54gW6cfUWfeLTD9PHHz6ifckR63/sGH1m6El64cuD9MwXn5JddfnFR63M7rbHY6+E2C8ukAUO48eeoXFHYMXjckKf98ryzjFhzjFk7t0yCha18WRSnesKY7x9sMYu+NVTmOFCg+ymaxYa7O67/gVOx/Z9j1HgmvQGC1jadNVJKK1VfvuiS//iXG0comxV9aQDF/pF4D86aAReDtxlz9hjW6P5utnsQqM4PvXrDcyufG5R82is6z/hvOfQ5PzFLXVydT0DNCz7Aoe3jrLLly/Tj3/0Q/rK4Wv09NEu2i1u/X9QukZnXr5M0z++6glG+fMvPbyHPnXnHbrw85JsYQ3nV+i2plre1jMCWtl9V7Msea4HDjZ0LV/cGsSFCWd+b4xY51JZ5NkJmhgOe/GMQlZIuLpoBdF16WKyW5e3lV22LnN3U+6SS/GWbVXWV+lwZVGsglrefU/k/FGggZKzK3ljgvN4+P6a9++m5UsASIb7WleCUc2QD3kvtuZV7zdx5k1YywSk7Mr6VXr779fp9q3bcgwov/BIvrTCZc/eLtp3sJv2P7hPTHupo6tDzGd+2KqUgm59AYQ51kb+7KwBjfamVKPAYlDHeVi1wPyAtTK0uyVBmUfueJx1hVkju9elVTMtC3W1sYWUG1QKyhZdLbD1IFUK09aYweIcGT2mxP46uqX6bd/vGMWki0wiCUtXnWamtSpsX/zSX9wE1fFMdmuCNZnjHNdrLW+18yQK51V7SVOj+brZlK7M3FpsHddYhr/y0SUsjypiXf9J5D0/Tc5fditpj3zvUZwXt5XLZbr+1nmaPLFJv9a3R44n5UB0/cY9+Tnf4jvFf/jvXz/RTV8/dpvefXOFLly4ID9PHAcU3D1T+4A2rwtHPhBp69dVmOcPGpPn6EYVUfEsLYtzmIsz3keeL3dFXZ5GfTdsdcfVVF7YLeG65bmrbpRlA6jjxGX6uCpr4pLr4LxurMdRCJOTVUlntBAa57F2zXvGO2qGOzjGgFvXrn2sQfljO3E/S6yJnwWu+5c9WefOb9mgqcHzDgAtqaUC0s3N+3Tp/Dpd+vtf0ic/c5yOneiRXwfjdrV6jdYvVMS879Damxv04Y2PZAtra1O6O9bbXVfWZHhbstwvg/Elx0vpWgGMcR7B6zAeyvY8Da1LxQ9l3XrqTS9+wFmFabEvSncqu3VPBhrWQ81v+wIfo+5lEtrvcayXK111mpbWYdR9CUh/mQ/9ut/yPomCdlHMY46ZsnCLgvardhrN103GLcbOY+N0maYlawCtLU4ejZmftyTvmZqcv+xWUiFyS53Ab8r93ve+R+W//Z/0r/o/oN/+zH4aOd5NJw52yrGljx/qpK9mu+lbzz9AX9v/S/rR2W/TK6+8QvfuGQFr4sxxO/ou7eK+w9046723N4Xx0rCgr9fR4UDMeOOwVeAfpPWAIMm4PtT53a18RTrHX0FgfS7fzmpUaoQv64OD7aoZ3HD6c1fjVNO6PrK3Tho3tbqFVJxI7paaKJNVydXIsgDQTnadOXMm0Uiu4+/0rRzc8nlf/O/Bow/QY8+doE999lF6+c9flUHmsU/20Ge//LQcW9r3aIbe+vka/eR/vU7Xr9ykr/2bL9Jb5TV645ULVF19z1xbzYMfP0iPv3CCTol1/u///iq9LQLcIJsv6QrVAAAqo3udrOhIIihsI8ZXe4iE4tbEqOPrXI4cOUIDAwN08uRJ6u/vp/3799OVK1fk23TffPNNeuONN+jq1avm3M3ClVmDtBJS4JVv3dU0VHOFS13ZQo5J7KUlFLQj4zzG38G3/VsXgyj5sZl5JHBdvE3rbd5+jAq6tk56ANhyqQWk3PLJASd3uXUHpLu7uyjzyFH6zX8/QgePHKDX/vY8/eg7P0VACgCJ8xZ2lWBUqDvw2AlkYbc2xg7pBEnIT0xR31kERQAA7aLz2Wef/R3z50TsWnV+Byi/qOhQ5iAN/Ys8HTi8X44b5e8T5ZcYvfX6Gn1w+Rrd37xPd27fFfPuoocf76Pr792gi6+9Tbc/vENP5E/S8Sf76NHBR2QQ+8SvnKTDYn3XxDzcdbd7f7dY18foaP/HZOD6weXr5pb17mdvmj8BABAdeuLzNDw0TF/60pfM6UU6Yd3Gygv0u//jbfMXMHDA/h/pG78l0urFEySTCukECXr73Mt0vtkN5AAAkJotD0j5zRSdXZ304McfoKuVa/Tu2vt09+492fq5cfEyfXTztpyNW0+vX7lBt659KMeJ8md3PrxL9+/flwHqtXevG/+Ked4TQe2VX16VASuv/94dY9nKxXft9flBQAoAqqvnX6bX9z5HL9pRKONuav+Ofv9vEGR5HaInPu8M2tGlGQAAAKJKscvubqMl9KO7xpt0xf852CTX3nR0iA8EfuER49/db97l5TaVZYPW54YuuwAAAAAAAOlI7S27t2/dkcEo48CRg1Nd8MiBqBWMMv753r1NxyQ/V5YNWh8AAAAAAAC0hpb62hcAAAAAAADYORCQAgAAAAAAQCoQkMKOwN8dODWaNX/bfrb7/rcF/koT+WX+U7QjT8VOP/5tDPcPaAfIxwDtCwFpAvh7DGcn8uZv0M74AYlz3Xytl655migMUWVhkiYn/b//UF77ImgL3HUzsFMLVq2fj6Idv8pKC8c0NUqtWJxsjfQXaexKr60sfG9FGtR7fWxH7nLAzjn2dPMxAGxPCEgBoHnyE/GDjnqW2WrZPspQmVaifJtJtUqZYf/jyY8Mkf7d4y1Md/xRzht/BcwkB7HmNL1IEWLZ7ZEnmsgIVoZpY0ZJKzHN00j7tUa34/URVZsf+47KxwDQVAhIARpQnBMPXHznYtNt63StlKhEA3RaVwDLjtJwZpmWy+bvJuSjdKWa/iL4LgxVaEHT8ry6OBepNboZtiwN6rg+2kY7H3uL5GMA2J5S+x7SVpHE95ByLWGhd8l+uHNXqOGNGZqncXHDNtOjukwzoa0FWRqdKlDv0gxtDBfIWJS/oF/c8GmUpgpWbWpZPATmSC1KyH2wtmUtIzfWrHUKji/Ad6+3StVqD/VUXF+Szy0fwxvBx87zjOXMX9T9MLZR2wXvPvotG/Uc+KebnvNc15O2xjIDpeB9s/Z/WtmZ5M+x8/jD0pA/t5Oe2fnD/7z5LeNMV4Nz3wRH/ot+jnWC1u35LGCd1n7PbAx79p/x5+NiD5d6C47zaS3nmF+bl93ntnaOgo7BwF3pxshe48IkWR8HLev5TBz/cmWIhrTnukZ7TCZjnVx4reU/mRdoQfxvzCcfufclXv406NNAt6+e43YdYyPbq7HOp/vvOv7Xka2B+587DaJeT4504s+Xeqngc4+3thH3+mDO86Ge+2bd7wTHOfZea3GeadaxWvO297Gfo9Ny/vTzMfNPLwBoVWgh3SI9QwX5sDG6sMzQMg3ReMQ+LLmxcaJ5Xm6SZpaJhsanxIOml5bM7jAL5RyNucaqFAZKNGN+PrlQoaHChCga1dS1TlmANNfJx5AZ84w5ygyPmOudpumlsvhDn3j81OQHc1QtnfMUVCy8HVF+U7azQn1mOmVHrXUbk24f/ZZlunNQiJluUcRNW+bcNzGPKPAXArosJnaOQ9YZlI9lC8uCOOdcQODP7YKY/3nzW8ZN7luE/FfPdRa27tXFaZoUCViVBSPxuaag7ba6uETl3LCrm1qeRsR2liKUjHifgvKyep3x6sLTxwiMxAzm55O00mfkr3qOfzHiefOzujhPy9UcDVvHJAqgYxmxLrEe/3zUWP4MSgO38PQ0NLy97GkaEIX9jTXz9wBJ3/90wq4nTzrNE407ahP04l4fUc59qz7T3Nry2FsoH0dJLwBoPQhIt0p5QanxXKVzpSr1DJzWFobcqsvzdu2efJj19FBloVajWFwRD4rcoHnD5Qcb0fK8UmgunpWFv0HljlzXOmfUWsxVWpwXhVT3g7V0tlYTWVwR61W7J+VpMFel0jl7z1x02ynSorlCd7cfuY/2AzJ4WUlzDjzLh6RbFPHS1uTYNzHP3IIr7VQJnuOw468jHweftyh059Yn/8XevxjrjqVIK+UeGlBOYHZ0mHLlFWU7fnT75MrL6nUW+RicBcbiIp/rpI7flBOFXPUFJ3bB0dgGDY2IPRCB21jGmfc8zP1sOH/q0sAtRpo0ZXsVWvf+0SPZ+5+PwOPTbHN1keaXo/Q6inN9RDv3rflM02nXY2+FfBwtvQCg9SAg3SJVV9Xh6nrF/IlxTbpSaJt11uZVPHd5V03k2ob4i0m+fKSHhgrq+ozuMZm+2pMm/jo1D5vVc1Sq9lBvv/m74Fyv68GbHxQP3SXHw8jBbzsKWXtqHZdaEx9h2cBzEDHdooiVtib3vomZaMOVtrbEznH4OoPzsT/f8xaF37nV5L/Y+xdj3XEVz1oBF8vS6QFRUDrrLXJ6+O2TwnFuIx1DkeTu8PlVW0ESPH5JFB6tlhA5qS2pMnjJ0NjsGGWUArWW3M9G86dPGrjFSJOmbC+GxO5/PgKX8dlmlPWyyNdHxHPfks80Hzv52Nl2eI4DwNZCQNoSijSnFtrc4yliM7vWuaZareLW4dpPq0adu/eUg15T2t8rHiV+jKBdjr2xjom79VkCl42qddJNHBD1Bh5QEvuaxDpDzls7kwU8s2Y+P0JDVKJIDSlNyctesuutSH8eoykLak0KkrZO4/lzq9MgdHur66L4HaX1Zivuf1ss1vWxTZ9pftrt2FsqH7dOegFAdAhI2418MGSoqZWBfuuMMm5EdvPpFeEVd+8J+doMWYvrs+9cG8sPGqWFJduXMX8SgpaNIol0a4Ss6fVJr608x40KO29RNJL/wiS5bu4Gt1Sm3PAETQyLVFjSddfUiJuXYx6DHKPJY0K5ex4lefwhsqM0LsexLVBlaDy4e3CT86cjDdzrTCBP+G+PW1GrIo/4jxeXkr7/1c27TQ5Uool4fTT53EuNnOM4zzRf7XbsLZKPk0gvANgSCEjbjtGtxj2IPz/RyKB+q+uZuo4sjY4PUU9olx3enxwNTnD3npDxc6uLtOTZ9zyNcgnO/aCShVmlLjVo2UiSSLfo+EUNtcYTK2390iuZc9y0dcoCiynsvFnUZTwayX9hkly3wOOXRBEs1xOj4Bo7L0c5Bt3y3DWuweNXz5s4t1OzU8GBpc3YBi2fFXtv7sO4qzDryBPNyJ9+aWD+aGtWnvDZHr/9VEkn+YInfjGLa6gGy0+Y8yV+/6uDtU31vPHLqdR4NCxPRLo+krnf1X+OeX80z7RY+V9op2MXWiMfh6RX3HMEAFumy/w3MUl8rQoE49p4mpilsVn+GgWD/LoB8+d6cNezGZoSD5vaOqvLMzQZoXTG3XzGRCmlvBC+B7zva/yWPHs73P2GH3urNL88QIXCrHjkCfwGzoUyFYb5F4P/stEkkW5RVZcXaGN4Vr5dUOKxd+p4O5ck9rUp6+RC1nDBWIc8Bh4nGHzevMt4j7uR/BcmyXVzvj1XqtIAceAVnX9e1pekwo+hSOfE57OzVuHP+CoEuU/1Hr/7vJ01/66SLzWy1sqM7a6PFER+EHnB3IYszA4UqDCxbpx/TZ5oPH/6p4E7VZuTJ/y2N0pq9uc8sjg9SYv8VRfK9pg8PrnJ8OvIP88kpzg3Q31T4rzNyr3iHabJBaJZ5wEGiHZ9JHG/26pnmr92O/bWyMdJpBcAJC/x7yEFkLWS8hX0jY6NbUdZ+Z1s/D2kGOMCANud/NoNzfdstpWd/EzD8xwAEoAuu5C47OkB8u9+CgAA7aK/t8fzJtR2s5OfaXieA0ASEJBCwszvBYvydRcAALBtuMcycuvoWK5MS23d22MnP9PwPAeAZCAghcTkJ/g7wCJ8xyAAAGw7xbkVGpzl+7wxFeRbk9u3K+dOfqbheQ4AScIYUgAAAAAAAEgFWkgBAAAAAAAgFQhIAQAAAAAAIBUISAEAAAAAACAVCEgBAAAAAAAgFQhIAQAAAAAAIBUISAEAAAAAACAVCEgBAAAAAAAgFQhIAQAAAAAAIBUISAEAAAAAACAVCEgBAAAAAAAgFQhIAQAAAAAAIBUISAEAAAAAACAVCEgBAAAAAAAgFQhIAQAAAAAAIBUISAEAAAAAACAVCEgBAAAAAAAgFQhIAQAAAAAAIBUISAEAAAAAACAVCEgBAAAAAAAgFQhIAQAAAAAAIBUISAEAAAAAACAVCEgBAAAAAAAgFQhIAQAAAAAAIBUISAEAAAAAACAVCEgBAAAAAAAgFQhIAQAAAAAAIBUISAEAAAAAACAVCEgBAAAAAAAgFQhIAQAAAAAAIBUISAEAAAAAACAVCEgBAAAAAAAgFQhIAQAAAAAAIBUISAEAAAAAACAVCEgBAAAAAAAgBUT/H3EPrPymK6OmAAAAAElFTkSuQmCC;" parent="1" vertex="1">
          <mxGeometry x="-798" y="1520" width="758" height="72.38" as="geometry" />
        </mxCell>
        <mxCell id="BgiR5zi2WwaI1OMkJMpC-10" value="&lt;font style=&quot;font-size: 16px;&quot;&gt;Add Metadata Service with MetadataExtractor and Humanizer&lt;/font&gt;" style="rounded=1;whiteSpace=wrap;html=1;" parent="1" vertex="1">
          <mxGeometry x="-800" y="1640" width="485" height="40" as="geometry" />
        </mxCell>
        <mxCell id="BgiR5zi2WwaI1OMkJMpC-11" value="&lt;font style=&quot;font-size: 16px;&quot;&gt;Create PhotoViewModelBuilder&lt;/font&gt;" style="rounded=1;whiteSpace=wrap;html=1;" parent="1" vertex="1">
          <mxGeometry x="-800" y="2370" width="360" height="40" as="geometry" />
        </mxCell>
        <mxCell id="BgiR5zi2WwaI1OMkJMpC-12" value="&lt;font style=&quot;font-size: 16px;&quot;&gt;Add style for HeaderedContenetControl&lt;/font&gt;" style="rounded=1;whiteSpace=wrap;html=1;" parent="1" vertex="1">
          <mxGeometry x="-822" y="2630" width="360" height="40" as="geometry" />
        </mxCell>
        <mxCell id="BgiR5zi2WwaI1OMkJMpC-18" value="" style="group" parent="1" vertex="1" connectable="0">
          <mxGeometry x="-800" y="2050" width="760" height="149.9000000000001" as="geometry" />
        </mxCell>
        <mxCell id="BgiR5zi2WwaI1OMkJMpC-13" value="" style="shape=image;verticalLabelPosition=bottom;labelBackgroundColor=default;verticalAlign=top;aspect=fixed;imageAspect=0;image=data:image/png,iVBORw0KGgoAAAANSUhEUgAAA0EAAABRCAYAAAAUw63fAAAAAXNSR0IArs4c6QAAAARnQU1BAACxjwv8YQUAAAAJcEhZcwAADsMAAA7DAcdvqGQAACohSURBVHhe7Z1bbBxXmt//fWfzIlGUulsUJcqyJduZNj20rZlZbjbJhsky2AjYzSoPk4BPfDFARNggCMDHVQTkiUA2QJYJHxKAL0vMJJgVEiTCbLgz9G4GOxzPyDO06R6P7JFGoi5Ud/N+63t3zjlV1V3VXVVd1V3Ni/j9jLKadTnX75z6vnO+c8r14YcflkAQBEEQBEEQBHFCcMv/EgRBEARBEARBnAjICCIIgiAIgiAI4kRBRhBBEARBEARBECcKMoIIgiAIgiAIgjhRkBFEEARBEARBEMSJgowggiAIgiAIgiBOFGQEEQRBEARBEARxoiAjiCAIgiAIgiCIEwUZQQRBEARBEARBnChaZgS5vV64AkEg2AlXxymgvQtoawd8frjcZHsRBEEQBEEQBHE4uD788MOS/NsxvMwA6rn8BvbPX8P2mYvwMiMom8mgtLWKQPwhfC8fIrOelO8mCIIgCIIgCII4OJydknG5pJme8CVsetrh8QcQafOgY3MFnu0kXPks3F1nELj8Nk5/7Trc7DpBEARBEARBEMRB4qgR5O44Bd+197Hyxm9j5cK7SJzqQ9zThWfuLmTbz2C3K4yVM1fw9Pw72L40gILXLxlOBEEQBEEQBEEQB4RjRpDb44Wv6wy8F17Hbvh1ZM71Y9vXhRc5F+LeTriDHSieOov9rhB2gj1IBU/BdToE+Gg2iCAIgiAIgiCIg8OxNUGBrm54zl1AuqcPufBrQD6LQqGAXLGEUi6LC+4MMmcvoeT2oC27h0Aph52NdeQe3EdxPY5SyfGlScQrQjAYRG9vL8L9b6ArfAHtZ84KV8vs/h721pPYSTxH/OljJOJxZDIZ+SmCIAiCIAiC0McxIyh46Royrw/iQfslZIOnEG5zw+8CPOzo9LrwPA1c7PQjyH6X9rbRlnyCRLaE9i8/BhLLyGVJeT1MhsanMBplP5LzmLxzF8vS6UPn9OnTuPZ3voYr7w3hofssPtso4uF2AVtMds4yGXujy4NvnHOjZ/spHi/+FA+/eoDd3V35aYIgCIIgCIKoxTF3uHwui3w2C5/bhUj8V+h+/kt4Nl6isLuFttWnOJ9ZQ3AnidzTr7D3m19id2sTocwmAsEgEGiXQzlkhsYxNTXFjtu42S+fU9N/E7fF9SmMD8nniJbR1taGod/5e7j4rRH8+Vo3/sPnafzPJxksbeSxvFfAL9Zy+N7jNP79pyn8INeHa3//9/Hue++L55xhCONT4+z/DcLl6fZN6ImSKULOmoiXIAhC3X852adQ/0QQxCuCYzNB/sgl7F95Dw8j7+BKdpWF7MaOrwN5txdnivtIuQPoKKTh206isLcj3OLC+3Fk1hNIb6wiv38ERu+50ipNh2B+8g7uVk+H8M5/Yhgh9jM2ewvTC9Jpwnk8Hg8GBwfR981/hP/2ogOfMIOnYCCpp/1u4U75u+f9+CfBBJ78dB5fffklcrmcfEct/TdvY2KY16QO5dkwrkQMYvHWNAyrmsvMSFx/9kzvWlnGdFDiFXIWwZxZvAcInyUciU/iTk2DqINZ2TRBw+lRUS8MJ+KwwkHFQ7yq8D5qFNoeRXl/qfovy32KXngSyXlZTq2EpXpXVjB4r5YxjrtCDLO68fbj5u0JGHXpgiPm5UAQxOHj3JqgnghSr72Lx5e/hd6uALZdAfFtIF96B/58GqmSCx2ZXXTm9uArZpHJF9G99RyFF4+Q29lEsVCQQzpEyAg6Mpw/fx6/9wd/hO/s9GLuRQ77eX0x5S5x//z1duxli/jRSgZ/0O/HW6uL+OqzT/Do0SP5rjrweh9cxK2aCm2BEaTG6HqDRpBi2JnKpizDTMAtK95OGUE8nFHM6pRzBZGHyJz2Hh4Oa5eKEuaE4VAdRnXa6l23Tq1iV1YmGXbz0ng6zBHhskTqyY5unbyiVA+OaMpDV7GvYNjuZPmtploOlFvU58uo4zZV5tV9luq35T6FPzOCuJmxUicsqQx5F1MVhpyHRMPvTrP+WDKCInONhk0QxEnEMXe43PY6AonHeCu/hlQ6g/VMHsXUHro2niP4ZAn9KzF07CZRKuSRYwaRq1hA9uwl5Dz+o2EAEUeKd955B1/mOvH5ZsHQAOoJuDH+tS788cAp/NvB0/hWJICPV/PYaI/g/fffl++qT39vGAj32ndbY4hnVXBlRnKpZIeO4tNykkmER4xd8IZuGCtxRxKuOLFy5AqmVUPhqMCVwSmhUN7CrVuVYwY39N1tD5lkLGYqOwcKNxwacSVtBhZn9exwdPQgXZ+TvPkiNHC9Jt/91westdv+XoSTcTyX/zx4+nF9gA/E6BhRy3dxZzaG6FGRMYIgTjyOGUHFPDN69nfg3k7iTNAHf4kZNoEgCuevIH3lPWQvvgXvpbfg6+fH2whcuAJv4glcqeO+iJ2PQMlKb9XbsqwQq17m2nOqZ9XPc8VPOac+r6b6HnbcrtKstHHxUTTV/fXSqhO+5tA8X5UPdpimhSs44j5jv/JLly7hRdaHnZxkAPGvSam/KNXtd+NfRbvwL691oM3jxs8SGXy1lcPKfhEpX4fYTc4aQ7jBFZ/QMG7oJiaKUZFWvXVi/IXPVZfKswvTKoWXvfAPnMQSljCA6zVpZbA6HQnPY/4QksURZWNrmJbJbFMjx9aplzbbaRcKdQKzt2qVweW708aj7HWwX4Y2iN/DXGIYY0fRQjsguLGttF+l+YZ75fLgSrzStsvHLMRtyXncM6gWZaBEHTY/9Iz6REJYQVXtVzIsuJHKrpoijKXEisEs0VGn6h1Vc9RzlSMIgrCHgx9LLaG4u4HiFz/Buc/ncTkew7nVR+hIPEJ49wXSRReWcx6sbW7B/XgJ/k9/iNzzX6OYScnPHyVCGJ7Q6YRNXCHsM4CxqSof5ugobo+P17pc8PNqxYQbETppCQ1P1BgfEjyuqhdIdZg2iS3Kb3xhLNX6YvO06BpvPC0WZkgikQjieS92mRHU5nHhcpcXoaAHXiaxfA3QHw904V9wA4id+OGzffyX2A4W13JIpgrI+jtw4cIFOSQzuPE2ivD8pDBYoqN6Rhn3QedKS60y239zDANLM7hzZxbQfdYcoRzVKDwGiHI22LBDwwruLwHDOhYdV5CwdJ/dUYs0a6HIun48mntUhr2Cpeu6MqEHV4ikujHS+c3jqzbMzeunXtrspZ3FPcJnr+q5Hulhnm5tOqR7x4eUZyr1pikbS3IjsXBvngtPXVnWhs8OVdmIAY+qshL3q+qo7vO8jwgNY0J1jZ/nfZbmWVWYevGKvlJHFnVZmNaVtcSKsUkxNM771STmZ4zc0+wRX1xioYUwoO4U+q9jIJTE0mJcPmGEPAuj9M2HwjLrf5KsL9WROd6H8VndObOyUvpbo6ORNkUQBKGPg0YQM4OyGRTWVpB9+Bk6H3+KU6u/QTC9hY5SDr5cGh3rz9D2NAbXo89QePYVinvbwj3uRBJiVgNXvkXHLo8m8tNR9vLXO1/tIhGble/hxyTm5SFCPVcKw7j07lWoHvWcnC+PQnKfdUlZYMrXmGSM8XOV9MhxREdqX4SatBi/0NTfjfrdCwH8139wFn/ywWm8d9aPf8MMoG9flQygHzzdx39mBtCnzADiuFwu/jCKxaL42xiuZDPjLTErjcgyBWhyPoxRiwojV7j4OglpNHcB05NxjNjaMYnPQLFyS1YpPGWUGSj77jjLd+cQqyl7Hl8Cczqjz1ypnBhYwqRSf7MJDE9o88KN2jHMyPXG5A1MQVUlTIQhZj7kMGZgydjVp1cYp1Em40YucPXTcwOYkdPCjtkYK0+7BdkostIab8AnqZF0h0eUZyRD3Up9GsLa/QxrByMmjaCmrnn5h0fLBsjCImv9GvdSWTmXld+6z/PZLj4Nw9e+8Osqy0Sv3pWZq9p4mdQPMhOFGf76UlSLMKTkdsfFt9LX6cBnVrmIx+Yszexx1zolbMMBqOf3wWwITd8sZneSS7hfT56GbrDSqJ6RkvsRRwfwOJX+qTovy3fvsPfFEgaqBxInBrA0SWt2CII4OjhqBHH4+p6dzQ3kXz6GJ/kE7q0k8ltrCMQfIvzsM5x6FkNx9Rly2ewR/kAq3xhBeUGrDpUh0DwxlUK6AP7+ljA6r4Ip7FqXGGn0TRCKoE/6VYEpEzP1wjRFcksSL1G1YiqUPemnmPkpv/CUWacQIjWJUefPmBcvXuCCL48unwtvnvaiO+DGH17pwMw/PIvRtzoRlA2gqc938JlsAHHCQTf82V08f26mMfCRc3kGSFWO4uVtQWHkilLN4nRuNApDyJoR1X9zBFGm2MzMGI28V0ZERTTCKNXxs9eF17HWuBLxxRbZlWokY0wzkr1wjxnVUQyqE6UxSGR5KyucchiTKqNWKNMNtpboMIaZETFv5F/EMU0Pj17rcqanILeWBEwmEAxpKN1L91TPWKxPE7gRnRgeM5BjnbpmMd1lcpxUDO+FRcTUM5yin4hBmqCw8LwZOvVeNhiq42VxDUaTWLrfQEXIhExmxaT1dXXklNEXqTU/eH+pbwjJslzOh2RAoq6LG+ujdWdZ5H7E0XcXp9I/6Q5UVA+iicNK/1UxrowOMw8GtaFZe9gZpCII4iTguBGkkE+nkF15gvQvf4rdn/81SosfochngDYSYv3Qicdo8aqlRa21vtOG2z03jWQwCKOGj8w2O4xncdHu48eP0efLoNvvwp99vovvfLWLRCrPjCEvvG6XMID+jBlAS+sVA4ivGbrY4UF7bhdPnz6VTurClK47Bi9vbmCWZ6gWMK0zW2W4LqPaUOFh6e3i1H8TY4qiyp6Za8EshdatSVq7pKus8YXUTJXTun9K7o3ltRCMZNW0xvJKQv7FEGHUKv2ae+zAFN1ZZsSZGaOm6ZHhMw7lPDU8K3Xw2E23xl3LYn2aw+SeDwboLZIzqGss8xkMZdBDa4SLmQzFALf0vDHm9V5l/A8NMsPf2iyNgmjbstIurQkyaJvKLBCfoakTvjpMfkzKgwNGM/HL9yWXOFEW8kCTuYtbZVCn2e65cWrfSfWP6vbN+1t1WXGPglr3ON1+W+7T1ffVHrV9OUEQJ5uWGUFEP6o2DnMI/rKR/dBVs1XKi9VphsaV9T7sZWS4LSvXW9Uvm8rR6Ev5iy++wDXvLt7pdqPD68KffraDP3+wi+d7ecwt7+M/MQPoc5UBxOnwufCts270pBJYWlqSz5ph5cVdf/RQ7UKjPvTtGhbnBF/sXzGWFqYldyCzEU7bCKVSHv0XbjJmylqtosEPfWXjYBBlwtI/anU9hwapXsW2zkp+DnKTiuUVpuZbn3mp4FS6HahPPnsUtjAzYwCfwVKUfD4TclDrVNTxcle4ZuLlAwmiV9WZiVN2a7PjaqcgGTkmiLbLzC8mQFI8yiyaHtwAUrn1OoLBmlh2GPdR1QaMcnBDxsCzgowSgiAOmZYZQXxthtfngz/YDm9HF3zsaOvohM/nl+94BVG7c3DFUxgPDsNHN+WfFbiLifOR8RFpaSCav8R0Xljyy5pTs6kAX5DcxOzG6uoqPvnJj/GH3Tt476wXPiap/3FpBx/+zSrufLJVYwDx6//0oh9v517g4S+XxExSfYxe3MpRWT+lj6S0Ctc4nWfBXTM0ZWA0YstHMWdNXJAagYU5F2MiOY5xvkjfaDGyUNjDsDxJYEhtGFwJbRxeJtKajwm7hpBoI8wQUBVy9VbmrWUB9+aT9rcCdiLdjtUnK/+ZJQxUzwYZhV+9DqrsmsZd0lRKvNXnG0XEy12Cq+KtC2+b2j7MeDt52UWN9Yv1Xe1YuONaOSiHa+jiJrvERQdxg7vS6bqxciQDaGBJ69bbHOZ9Yn1Di/eJ1jfiIAiCOEwcNYLcHg8CwSC6zkUQvCxth+29eA1tV7+OzOvvwf36u+z3uwheugpfsAOBtja43cd9Mkp+YQlUI2ijYfHNB8d5HpdHEdWjdUyxdjoyscWvogLojAwK5V5StCWqfLkdcD+KxWLYffIFbl0p4h/3+sX6IG78rOxJ35Xi7m8e9j9+/ttXAvj2+SzWvlzEw4cPxfWWw5VWQxdBpkxwP3ymyFQUK67YGykSXPkw8Zm3vDucCj6az+olWl6PoYfkQlTtejY0Xn8GrIxw6WNhjKmUPSY/I+FmZZKXFzNE+S5hdgxq0UZUirZwP9RXZxtC1IV5+SzfnZEMOJ37hsYN6tGRdDtQnwq8XpmJPzYg/y3gBh6qwmfKON8gReN6JrumjVWvRbP6PENvfWNdeLxRDI5zVzhVvBbqrLoPU7qwmgEEZS2kniuciIc/r4orzOVAJ1wTC02aLWJtl91rfJ9Zf3KckAaTlPKpHNzjoeq9Uj6U8jV61uyoJwcEQZwUHLFA3F4fXN0hFPveRO61d+F68zq8b38T7mvvo/g6M4DeeB9ZdpReewelKwPI90dRPHcRrt4rcJ1/Da7ObqbRHl9jiC+o17qj8ZmTO5hrcEmEKXzdSZWLDHdFm7Hi/WUZppQIh3cL8HUveotuY81/1Z7v8Pb9738fsY/+N/513zb+5OvtuHEpgCtdHrFW6K3THvyz/gD+9Jud+KP2l/jJve/h448/RuGgPr4rRp2NFHT2cuabSRiO4h4EkoGenL9nmga+ZkHsQqZSFAYX7bmqCPc1ofTLYQwu4o4jDUAxJketb3XM2ojYb0Ix3MeAGSfd4foiFupVUlClCUE5HfIxuGhg7DqUbifqU2FhehYJvqOjCqm/4zspKuHrz0YI1zT2aPVaNEvPy5s5iHtszijzeKPMetAYD3XrTDa45b8kJDeumm6Mh8X/tfQ9HhZueaBIQXJXNO0ey7PsdmazjiJ1BncE5rNP+ociz808SxDEScf14YcfNrVFG5/98XafQ/bKIHYufx2p9jMIoISuYgqBYh5pFvpa3oNzfqArvYntvRS22NGW2oT/VDd8gSDcz34FPPwUxfTeEd4xjjhMenp6MDAwgKtXr6Kvrw/t7e3Y2NgQu8B9+eWXePDgAba2tuS7nYKPMg5isc5LU+wWp2MzcuO0ITuQjyZPRDBHL+sjCXcT5ds0H/8R+FcUnfZzMutM1X852aeYhsXjVHYHNUIaJKTmQxDEYdOUEcQNoO6z55C6eh3rwXPYzxUQcBWRyWZRcHnhz6VQKuSwHezB6e5uRHJbaNtJIr8WR2o9AX8ph/TbfxfBrlNoS/wGu198gnx6nwwhgiCOLNydrfceKXFHFW7wiM0lVCMQVGcEQRBENY0bQV4/iqfPYffyINouvwV3ICiMoPWiB6H8DjxeLwrpNLLMqMl4/Ah2dKKQz8O9vgLf/ib8Xd3o3nmJzb4ocKoH7Rn2zMojZH/xEYqZlBwJQRAEQViFz0SMIE4zDQRBEEQdGlqI43K54fYH4O7oRrorhAALxZ9Pw51Loyu/D+Sy8OYyCPrcYvMD5HPoyDIjx+2C31XEqWIaHcihlEnDm1xG2wY3jLZQ2EzAE2iD2+OVYyIIgiCI+khb1fPdF2fIACIIgiDq0tBMkLu9E4UzF7AduYpU6AquBovYL5Swni3hDDJYT2XRwYwfT5CbOm6kd3fQ7S0h39aFzv01dGzH2V1u7GxtwlXII9AThpsZVqlffwbPGfZ77RmK2xsoMOOJIAiCIAiCIAjCSTwffPDBv5N/W4N//+dsL3avDOLBxW+iGGhHjyuLjL8Du+098Af8SOeL8J89j/2Os8j5gug9FcSOrwvw+lDq6kGq5xI2O8PYjFyDy+PFvpdd93fB13UaeyxcPpvk3d9CLpORIyUIgiAIgiAIgnAG2zNB/AOovo5TyIUuY7UvivZSDh0edh5F9p8LGZcX7mxKfP8n4OVnXVjPlRDqakd2b0cYSCVmSAXYlfTpCLqeLMK9EUcmnUIhm0Hha7+DM2uPkH/5BHs7O3KsBEEQBEEQBEEQzmDbCHJfeB37l95B9lw/gl43Nt1BZs4AQRTQxg4XSuhObyLX0Y2inxk+LPStVAbYXoMr0C4+kup3l+Da38buqfPoTyWQYsbPZtGLLq8L+x098G3F0fk0Bu+zB9jZdnrbY4IgCIIgCIIgTjK2N0ZwlUpwFwvwZvbQth1HpLiLjlIO7u1VeFYeon39GfbdPjGr40rtIJfPY8PdDi+7jt0N+DO7Yic47G3Bv7uO3P4uSuyeNo8LPpYaXy6NgN8Pb1c30N4lx0oQBw9faH1b9Wn/6r+JY8DQuPWPrOrBv4kiPuh5G1T15lD7kGlU5pqVVROobogDpYWyTBBOYtsIKpYATy4Fb5oZMrksugspdBZT8DHjxsUMm2JqD5ueDmSyOWEEgRlDGZcHnQEfAqUC3Jl9FDJp4RYH9ns/nYYrm0KQGUbZnS0gvYegqwhXIIh0oFOO9WDg35cw+jr5cXqJ8LTa/co68WojZIIp83piUS334u/y1/zlQ36hKeHoHq/cS28I4xPDSMzyr8y/OlsuH+X+gfquCke1LI5THZE8EVY4bnJCcu0c9o2g3jewe+UDbLz+Dey9+VtYDr2NRHsEW5fexdrXR/Dsjd9G/nQE6dBr2A9fgbv7HCJdQWSufQO5Nwax0fsWnp17E/H+97ASehPZqx+gcO0D7L02iC0W5k7oCna6+5DqCqPQRjNBhAk02mSLZCyG8IjF8orNMsWfK//ycecuuA2wMF05Nzmf1N4n3/PK0N+LMGJYbPoT+4Qu1H6JRiHZebU4yPo8brJDst5SbBtBfWe6cNWfw5WdZVzcWsY7qWd4bfUBep8t4uLyz/Ha009wefcZevdf4vSTRXT/6ke4tPZreD6dR//jj3Ht6c9w+fFP8Bo73lz9Jfqe/gJdD+8jlPgSQ217uPrrHyHy5OfoWH0Md2pbjpWwg1BUVV9LJwhB/B7mEsMYI7eYE81R7h+o76pwVMviONURyRNhheMmJyTXzmF7Y4TAb/0+di4OYNPdBk8ujUhnAIViEWvZErZzJfhRxFl3Dl5/G7IbSezt7iDV3YszAY/YOc7jcon7k5kizrhy6GzzI1XyAD4/3ujpRN9+Ak9yHmTjT+H99c+RevyFHHPr4W5AE5E5XeHi048j8UncET4x/bh5ewKRuVtQ36p9XrlnEvGRCQyH+B1JzPMvmeMmbk8MQ5xCDLO3plEJRnpOup+jva6kYwZjmFBuSs5jUjUKr0kHH0UYjcpXKiTnlbzI95cjlNMoLlXnQX1NTaN5NYtbwug6LwdNtviMhCh3/sX4USiXYrPaOtJirayVcqr+uxqRJijpkOHlPxIv1482P4xyujlKOdqRK6M60VJO+/3rrD4imFPlUxt+7d9GWL2Po8RvJrccbflYlwcFzXUe/lwEE6ryZymxJB/aeBiqtNZc063DVrUZazJruX+QwxtYMntGSauZXKpkrJxZ47SKtqLTfo3CtCU3uvWuR/NlyWks7vrPVZcFS5GO7FqpvwbqxqQfYw8eYB3V5nlxUE92nov8VLe7+9dblVY77xktmrCr+rD66bPSFpV77PYtDuVJt7zqyFtNfUoRm5VVI+k1isuZ8jsJ6ZXiqtffKGkqB10Vt7V22Lg82sH2TFDh5TI88Ufo3E2gO70OXykvNkkIpjbRmd5EO/s3GPDD39YmNjdo6+hET2EfAY8bp91FdBdTOM3+Drky6NxbRyCzi1PugrhW2N1Gdm8b7tWnwMvHKGytyrEeX6KjY8AMs9qF+xAwPHZbVkKlc7OxKEZVvp39N2+U79e7zgkNTzDRmZHvmcQ8TEb3F6bLYYljNiaEbUaWdNEIBpYwWb6ewPDEOBO/CuERJU3qBlKL/byax212XYyEyHkR10XrkBoNa23S/exY7DWeRrZS1nZYWGTpCfdq4hsajCK5dF80bKnDSbDkKXGyuguPNuTba7VOali+i5n5MEYOYTaontw2Iw/l6+rynQHGNG8Q6/KxfPcObjEhTorOm90rd85W67B1bcbh/kFG+wwLNzGMiSZdMMzSqt9+9bEkN6b1ro8TZdl43HafM5ddu/VnWjd1+jE9WlNO+nl+biI7Vtpd82m1955RI8Ku876tlz6r2OtbmsxTnbptpC8wL6vG0mun33FWn3m10luvv2m+b21cHu1i2wjyJB6j68mniLz8AuFUEqHCHjOIVnFmJ47zuys4u7OCM8jhNLLo8bvQ2+bGG4V1ZvCsIcSu97DrZ/cSuJZfRyS3hZ7UOs5nN9DLfvt217C+/AjeBz+D5/FnYibpwIkyhUZn0beF95ouyfmZcme8fHcOsVAIidmKRSxeONFBWfD4PdOazlvvhcRHAyojesu4v8TqYeB6fQHhO12NhjE/o1jbQ7gxDNXfjIV7mE9GMaiW16V7lhRte3mtF7fFtNWQRPy5/JOxcFf1fBWWytoOC4sszwO4Xg5gCIPRJJbu80jk/EyqR2KWcXeGKdrREfs7j1msEz143SSGx8zjrG4HVR1YQ5jKbbPyoFO+wuCr7kOsy0ctNuqwJW2G39Oi/kHzDAt3erZKlu3jWPuyIjd1672W5suy0bgbfc5Edm3Wn2neTfsxA1pUR7bbq5V250haG+lH5LDrvdNM02cdu31LU3mqU172+wIrZdVMX14fZ/UZziuU3jr9jTPvqdaWl4JtIyizv4ds8gX2Eit4kQZKqT24/G3IBE9j038a223dyK2+gDv5FP6dNfhyKWSzGXZjES+3drGcKmHN04mMlz1zKoS0v1O40a3t7mGTHTu5PPb3dpHPsGcOA1YxiuWpPrgx3giJlepq01YsnsfZGS3cQi8rnzrWV1ITABOflYT8y4x+3BwTUl8RTrHwO8Ssf5WyOyVNYYZ7K6JYmwd9bOW1XtwW06ZlAff4CAh/xqLSXq+s7bGAxVgIA0pPMDSIaGxOKm+RnwRqimj5PpaSIUT65L8tYrVO9FnANB/1uWFSRtXtwGQEyiqmctusPBiUr7Zt2JcPDTbqsCVtRqYV/UP1MyxixBuQy2qcaF/15aZevRvTVFk2GndDz5nLbiP1Z5x3k37MgNbUkf32aqXdNZ/WBvsREXb9d5pp+mxgr29pJk/W6tZWX1C3rJrsyy1gq/xOWHqt9DfNvadaX14Kto0gTj69j+LKI/h/PocX//e72Pyr76D01/8dHT/+Htr/9i+w+6P/hfUffg8bP2DXPvoLbP7kr5D96H/A/8lfouNn/wfev/ku9n/4HeTnv4McO/i/pY++i9L/+x7yn/8Y2bU48vmcHNtJgk8BTkm+nory2aj1VUX/zTEMJ7TWu4Ts7lN11N7XCurFbT9two2J3TMLeSbDsAG1pqz5iIcymsFdSGJHdWsxPuoTbmAGqqU4Lw/VWJePo0jr+oda+hBhL8TGOci0NsJRT18t9mTXrP7q5/2o9GNHtb02nq7DfN+a07qybrStmZfV0ZONk5xedX/jTN96UOXVkBGEUgko5MX3fQqpPfFtIP59Hxc/MuxvbiSx3/y8+J1JoSSupdixL+7lM0j8HD/438pRymZQKhakOI446tEbTl9zWgN/24C9bjCrGnXv7w3Lv5qg/ybGuM9u9Wj+8goSCKMqGwdDvbibTJvwpeVrOoxczVpV1sKVJMK6BO5Cotpe2Sg//dcxENKO2DguV7pwN64lDJjNBh0kjshD7XWuwOlRVz70sFGHLaFVMquHGCnUbg9uSy4PMq026r2MY+lrIG5Bo89ZlF2d+itjJe9G/VjDNJ5fTkPttWGsp9VWupp8p6lp5TvCflnXKa9G2pqNsjpY2TDgpKdX3d843Pe3urwaM4JOPLL/4vAN9oqQGRpveN1QGTFdqRJMYbw027kxq3yCf/BR5bNbRnJ7qF6YOTSu/bs11IvbYtrEi1phCDdrWkntVL2gJWXN4emOYnCcdQSxRVWZK9O76vRLLoqhsquJg3LF139N3TbvNJbvYg6jGBuQ/z5UmpQHnhd+fUy1eJKV3UhY7UxmQz50sVKHLaRlMistUq0MtCl5UuS3Abm0mlZN+20Ag3qv22acKEtLMqdDQ8+Zy655/VVhKe9G/VgDNFpH9dprs7Kjh6W0GqSL78Q1pe2ftFh8p5nSIt2j0TxZkeWG+oJ6ZdVoHcg4LjsnJL1W+htH3lNNlpcNyAhqED5VJ3a84NN0/BhchPh4ZDOwDmVG8YPkYfLNPpp00Rgal7YYjI7KYSqHLMHcytbkgx2Di3oGk/PUi7tu2uSFfOK6yM8C7mOsfO/UxACW1As21bSgrBW4K0k0Gq1xIeEyMzkfVuVH2mpSvd6mJXJlAl/QmAjpdFA1G4TUMagcoFl5WJiWdpiZUK6zsrszp/UztiwfBlipw5bRQplNzs8iPlLJE3edbUouraS1pv02hl6913W/cKgs68ucPvafM5fdevWnwWLejfqxRmiojszy7JDs6FE/rQbp6osYG54yTrxvW/OOaCZPdWS5wb7AvKwaT2+rZOdEpFdcq9PfONK3NlFeNrH9nSCCIOrQf1PemrLSaRDE0aS//N2Ho7AuwSn4olzhk34Qxumh0sL6a3E/dpzqyEpa+T18y99XrR0dpzxRelvN4b4vWlFeNBNEEA7Tf33A8dEKgiCsw9dI1O5gRNih1f3YcaojK2nti8B8G/FjyHHLE6X31aYV5UVGEEE4irz//j0ygQjiIKheU8FHC0ejMcwdm9HVo4iz/dhxqqNG07owbfPD1ceA45YnSu+rTSvKi4wggnCIoXHuvzqKsPpbTARBtJSF6UUMKr7j7JC+Xk+uqI3Sin7sONURyRNBnBxoTRBBEARBEARBECcKmgkiCIIgCIIgCOJEQUYQQRAEQRAEQRAnCjKCCIIgCIIgCII4UZARdCTge69P4Xarv0Z5WAyNY+q26ovSBEEQBEEQBHGIkBFEEBYQOybV+VqzlXsIgiAIgiCIw4eMIIKoxsrMFc1uEQRBEARBHFvICCIICyxM38KtafMvRVi5hyAIgiAIgjh86DtBKrg700h8EjMYw8RwSDqZnMfknbuQvhnH1+5MIDJ3C2pdl39ReiIyJyvAyj2TiI9MQAomifnJO7iLm7g9MQwp5JjqA2zSMwNLZnFLiLiU60q44obqeJVrQxifGkVU3M9indWmXYsURjl4TRqtlI+EJo38+lwEEyPxmvuq4eGPKgnlcc8Co+XnrJS9ONNUHrRpYMRmRdjqeKzco2BcXxw7dUMQBEEQBEE4Bc0EVREanmDq8Qxu3brFjknMYxhjDWxYEB0dA2Z4GLcwOQ8Mj91mBlAEcyLcW5iNRTFatX5EGze7JzGMCZXLlVCoB5YwKV+/NZvA8MQ4U6UrhEduyPFWDCBmBZTDXOw1duHqv6k8Kx3101hbPpLSz7+wLYczA4xpLAZ9+HOjYWaMKM9NxjFi4blqms2DmM2ZjUmGEb+uY5VYuYdjXl/26oYgCIIgCIJwDjKCqonN4k55qH4Z95eSCA1ct62cJudnyiP+y3fnEAuFkJitzEgsLDIlOjqoMWC0cXNle5Y9N4DrIvIh3BgG5mdUsykL9zCfjGJQHcjSPdVMAyeJ+HP5J2PhrvFszPLdac2zIo3hXm3eTctHTuNkJZ8sUMzMJ+U/jNDJm6Xnamk+D05hpb6s1w1BEARBEAThHGQEVZFUa6WM5ZWE/MseiZVqdVar8OJ5nJ3RUh03uwnxZAiRPvazvxdhhDA8MYWpKeWQ3L7CvRX1XRvvAu7xWSj+jMVdy/jsRTl8nZkY0/IRaUygOut1y7DR5wxoKg9OUbe+7NcNQRAEQRAE4QxkBB1p+hApr23h8PUtFfcp5VDPHlWzfPeOuGcWo5Iibqhwc/esKWlNixI2d/k6Vhy1PJjXl/W6IQiCIAiCIJyEjKAGUM+8cPq0lopziNmEGBa5b9nyChLsr6qoLSPWsUzOIxkdge4Sp6FBRLnSrl7U3xuWf9mhNo1Dg1bW9lh7zrTsHcuDA9ior7p1QxAEQRAEQTgKGUG2kNePDN9Aecx+aFy7U1gT8AX7lcmAftwcG0Yotiivr1nAYoy7V2k3Qhga1/6tZQg3a7TqWrczgXDPUynt/TcxVtlizRrLdzHH0zimWuDPymckXGdtj6XnLJS9E3lQCEXAvRBNMb2nXn3ZqBuCIAiCIAjCUcgIsgl3YRI7jok1HuwYXMRkAwv49UjOzyI+IofL148kpK2XFfiMgSZudgwuqjYhqGEB9zFWvndqYgBL6k0L1IiNCOQ1KvxevrldA65kC9PSbmsTSpysfO7M1V9zY+W5umXvUB6UDQxEPEYuahbuMa8vG3VDEARBEARBOAp9J4g4ugyNY8rC94UIgiAIgiAIwg40E0QQBEEQBEEQxImCjCCCIAiCIAiCIE4UZAQRBEEQBEEQBHGioDVBBEEQBEEQBEGcKGgmiCAIgiAIgiCIEwUZQQRBEARBEARBnCjICCIIgiAIgiAI4kRBRhBBEARBEARBECcKMoIIgiAIgiAIgjhRkBFEEARBEARBEMQJAvj/rT446v58eVEAAAAASUVORK5CYII=;" parent="BgiR5zi2WwaI1OMkJMpC-18" vertex="1">
          <mxGeometry y="76" width="760" height="73.9" as="geometry" />
        </mxCell>
        <mxCell id="BgiR5zi2WwaI1OMkJMpC-15" value="&lt;h1 style=&quot;&quot;&gt;&lt;font style=&quot;font-size: 24px;&quot;&gt;Humanizer&lt;/font&gt;&lt;/h1&gt;&lt;div&gt;&lt;font style=&quot;font-size: 16px;&quot;&gt;Helps you to format or convert values,strings to improve readabllity for humans&lt;/font&gt;&lt;/div&gt;" style="text;html=1;strokeColor=none;fillColor=none;spacing=5;spacingTop=-20;whiteSpace=wrap;overflow=hidden;rounded=0;" parent="BgiR5zi2WwaI1OMkJMpC-18" vertex="1">
          <mxGeometry width="620" height="76" as="geometry" />
        </mxCell>
        <mxCell id="BgiR5zi2WwaI1OMkJMpC-19" value="" style="group" parent="1" vertex="1" connectable="0">
          <mxGeometry x="-800" y="1690" width="770" height="318" as="geometry" />
        </mxCell>
        <mxCell id="BgiR5zi2WwaI1OMkJMpC-16" value="" style="shape=image;verticalLabelPosition=bottom;labelBackgroundColor=default;verticalAlign=top;aspect=fixed;imageAspect=0;image=data:image/png,iVBORw0KGgoAAAANSUhEUgAAArcAAABYCAYAAADvEN8JAAAAAXNSR0IArs4c6QAAAARnQU1BAACxjwv8YQUAAAAJcEhZcwAADsMAAA7DAcdvqGQAAB0pSURBVHhe7Z07bBvNdseP+JBo2bJl+yP16TOimwS5twhBQIWBgAiCACrUuFOrSs0FBKhWa7hVbUClKrXq3KhQy0YBBBBsAuQi0IXtiLzf9UNv8aHMmX1wdjn74HJJiqv/D1ibIndnz87Mzv7nzJnZqT/84Q/3BAAAAAAAQAJImf8DAAAAAAAw8UDcAgAAAACAxABxCwAAAAAAEsPUn//8Z8TcAgAAAACARADPLQAAAAAASAwQtwAAAAAAIDFA3AIAAAAAgMQAcQsAAAAAABIDxC0AAAAAAEgMELcAAAAAACAxQNwCAAAAAIDEAHELAAAAAAASA8QtAAAAAABIDGN5Q1mn06G7uzu6ubmhq6tr+bnVasnvp6amKJVKUTabpSdPcmJ7QtPT0/K3m5tbeczt7a29P2Ptn8vNyP1nZmbk35wWAAAAAAB4PIxc3N7f39P19TX9/PlTbOfmt95MT2dpdnaWms2mFLftdtv8RU86naL5+Xl69mxOHguBCwAAAADweBh5WMLl5RV9//6DLi4uzG/8aTZbUgSzhzdI2DLtdoe+fftOP378kIIYAAAAAAA8HkYmbtljy2Lz4uJcem47nXAOYz6Oww/4/7Dw/ldXV3R+ftHXcQAAAAAAYLIZqbhlr61faAGHEMQVRsBCmkU0bwAAAAAA4HEwMnHL3tSLi0s5EcxNJpOWk8eePn0qN54YxpPEvODfeB9j/1mamZnu2d/yFF9eXprfAAAAAACApDMScWuFFtzd3cr/3fCEsdevX9Pi4q/0668L9OrVK7lCgg727PJqCLz/b78timMW6eXLV/I7N+whvryE5xYAAAAA4LEwMnHLHltd/Gs6naZnz57JJbxYuLIH1vLg6gQuL/HF3loWxNb+/Hlu7pm5RxfjvJhU5kd58yN9/Ci292u0ZH4HAAAAADCpDFXc8pyxu84U3bZTdD+VpnQm44ip5c/pdEYKXPf3GbEvf++Gv+Pf1P15+S9Oxw2LW52gjoOltfeGKDS392te0rBMm8p+HzfL5vdAUt505KNjg+AeElwnN8W/EeEyi1I2S2v0fpDzAhAryn0QZ91EPQdg7MS+zq0haFN0fjdF10LU3rUNEZqdalGu+Y1uLn7K8AQWnSxQOZwgn8/LmFuV8/NzuWSYe0IYe3jn51/Q3Nyc+Y0Bx/N++fLF/MvJn/70R/NTfLC43V7Jm38JGke08+GATs0/LXr2q+3T1m7F/KMPuMHcXiE62qEPB+6zRIc9t+tF8cHD/kAGtYuFkjRAw7hsioMx2dBT31Ts/OSH+jKdbO2SZ03kclk90+e/7rcw5SjzZIEO/c4LAuF7dvVsjHV7ouC6vk7OmtkQt+UHOjhV7oPQdVOXnkHDutfDpGW2D8471bLL/LMH73N3qdG+9rxLtPZ+m7yaBknU9haAB0is4rbVmaKrVoq+36bp77cpuhSfW0LopoS+nUm36bcnt5S6+Ts1r86lwGVyuRz98ssvA4tbnjj2+fMYxG2jQQ0hzvPahslqUMQ+DbEPNyyRxG23UbMb0JgYTNzGYJctioIa9rAML6/C8xBsEHDeLp9o6hvbF7O4VfH6PaK49RLstf0titJPjBvrHtLZI21fOIzWofXgYYhbq46HuG/te9zAcU9oRV4XK0/tdkqgvafUdHzbMrXuK59D100+ZpXO/K45IC2jPnO/15WGeQ31yPXa7742nkULhw/jngFg2MQWlsAe2/Nmij5fZul/f07Tj7uMFLbWbzetNP31Kked3CvKPXtOmWxW/jb51Kne4P/zVHrrGqhdekslbm0bYh/jGwBGxtJigaiwGCm0Qx6rwOLCDhdRhMrI4E7h1pay7ROtP5zQlUatRoXVxxNGU940Om+BuIQtk1/Z9gnj8oOdBOL40tuefF56W/IUyA6WFqnQOKPP5p+jZ4neiodCbV8jjk8P6MN+jYqPqB4BMCxiE7c/m2n6v6ss/X6ToftuOKwNu4eb7RR9uZ6h68w8PX/xUsbOTj5ndFKV6ran0bUa3Eb1ROzlBfeoFeEgNrXh517+R9MLyPCDQe6nxu5yj1853p2GjXs/IQwWzZ96CEgzVrt8YW+EdXxvHJsqut6/97fJ3pcFET903Wn2Ya9D7Cn7hcoXTZl//Pie3KcKtNeXMr1jb2d+hd5pDygKbag/L9snqq6QEt1jK7uKsBQP4PFTod2tHToSNm4/hDj2s090WF+hjb7r9wQi7pNVp171QNRzc0f2tqp1J7/yzqjHLOjsDou17ZPcq3FEn1xexjp7EvIlcvoRDMHIHQyjJfZGtsn1r32OUD0U1LZQt4XscADwCIhF3DY7U9S4TtP3uxS1fYIc+Kfbdpp+v8vRd3pBL16+lqsfpDhuYYL5fFw1GlVHo2s0uCwRqscefgIppnrjoKQgCvvAZtGjGdbjNBzCTLefED4rutYwbJp+9J1Gnla2nY21sR+LGPNhx4JMyRcWkoZTiOPMtmivKr8OQYk23N7H0PYaDxj34bxfqCLzKHPr+vVpaOz1hcXzOhVYULAnaF0niI0829rq9SAtrW1QqbpHHz6wd7T/iTHS69sjQDyQ+aET2GE4pYNDUTOKy6aNRqdhs2x1HrrpGp0Oq251v+cOhK581XKQx4Yo3MqnIyJLtPngtEVsPWm7Oz8BZcB1V+ynXofX9Ro4RVKoemsjbNsQ90mjRrVgJWmMXIm6dmhVssqJeS8XaNFhUxfDK9ygo73e0IKzE25rXaNk8jyinT3xdiEYmF7Tk3GOy5/ScbUh7klNned7QdzntUOvkArGum+9tqCwCgAeB7GI2x93aTpvpumu3Zsc69Zs6p5y6XuaSXfE544QwFN0cz9Nzexzmn02p10VYaI4PSB+xrJAsRvd8jtDwDSqdKxtqcyHhPhkezXkZgq54qps/E4PPnS/E9j7qoFTjiHbHToyHzpdT7I4l+1qURrHnSNvT0dAmvHYFRYhcC1bzXzhB7oRh8kxf0aDHsomhoOf7TxXHgYh7FWHYzke0Np/x9zZ34ZumTvKQTmXVoh62auFhYsQz/V9Iy6xsitsK9B6SAHJYo9jRI2YRs73M1rta+Y3e4zFdTc0YToSy2Pcr6jyQIolp1AqrL4j2uO8MoQ7C73tUpV2rPzer4uOhHFNlZOasz6Wl6nQaFBBSfDNQkhBJNqBPZHXqz4ZLW1ZqTvLvrDuELhLa5b9xrZfc3bqHLCwXS+I6rFlx6H6Xa9RP9ZJGGCnf7IYfhi8vGnMITja++QzGmXyZsGo67UTpc5+pjNZ1/O08EZ+4cTyCtcO9TGtn4+JB8rUMpPeWG5ng2INuE0mtzfYrI+aju1gdOu5uzMv24idKpVcnfmP2yWqinJETCwAgxOLuOVQBJ2wZVH7fLpN+VyLCk+aYuP/W/SL+Ptp9p7upzJyjVpeImxQhrTiV2j4IclYw23lZUMCNarH+l647dXgY8yha7lZ4smj8XcjxItTvBmeAUl+gWQSyrlq+4o4skW5izBpBtF3GixSuw9c3hyTRsx4NM4X6eGVnswQk1m0KJ4ki1D2lsksVila1d35geU4XIdXOYhzHexZHY0iLffoGI29WtjjZ3psFWPkw9QhcPSwsF0nIfCdF0YfpMANJ46X1lapKITGnrgevRezK+rlaTh9jfd4IKqflPQMse3wAlY+ic6Emc+fz6ih1MfycoGqh1USytwUT1zmDToLGaR5enBI9ZUNj7wybTE7YwZm2VudNv7mYNeRH7Jt0cVO28JWzb+A65U4r6dy4OcpVBDn49uucbQ3QHmd0lefCQhlYbycnOuOR7Ax70t7ZMAcIQsMNRCiXusVNeujX0c/Et163jP5jZH1vtvWGVuY+6Armr02t5hWKXKcuuYYY+unEwvAwyYWcXt+x6simH8ovBDC9h+e3dEf52/pn57f0T8r2z/O3dGvs03KCAsmOyjBxB5u44eIJYLCipJBcA4x8tYzs9zyoLgeat6ESDOQONJwIb2Q3UeQdlJGGLQTSkLYy5NRzI/1rxFO3Hc5mISeACOE0gePhymLd9vry6EevR5gGVerU+huAcpp6WajL63RhiWsxDGHfh7HuFDKxMJRNvJ3d8iLERYivbOn7Am0hN8SLRbq9LUiviNT8JaXpVjXj77oEHnLHQldoLO0RaTvTkva4OzMOsIKdCEppQ2NsBUEXa+wT0ZP8O/9lI0U0sKOmjkiEBnOY/OjG8trG5DfpzIMzMwvs8Po71nvdvoCO6BDo7d9Cd7cYpPvW1UM8wiROgJkbPryMdoGdb/erbdNAGBSiUXc3ramqOOaRTZ1f0+vcy16ntWo3kRSIdN5S4XVVcP76hiO80Yd3la34IaYG0wzPk3xeqoC0EkYb3C/aeqIIw0NdiiCgTZuLRL926sOW4eGvYTyQ0ivfGTCPEiDvTTuSXPWptdE4pzbvIxRV2xVdo0hdz9P0sBwhyFQfPYKAN4MEWB4AmV5slCq8z3L3kVD8HL8sOfoixfsKS10PbH9YZSdXD7MslUzgY/vAlvg9eB3veKKZejMFu3TulGmIUSuNRIlbjqzHlhx44aQ1paxVd8dXuc3tCCP6+3gdSfgBuS37AwIU0QBGcfUyFvbsrBVwnRiwd156G7edd0tTK2NBaqz3eluEJsARCUWccuTyHqiAvgtYyL1dGrM8QIjxA5NkAvaBngTzAaa6YmzZC+JxwMnrz7N2KtkfuxizpJXsb3K4lzqMjPmMKODsGm6iGRXP5iTLRgZx2qHKHiLNIdNfoS1VymzvGvomT1tuiJz2OBZ5s5Y3MHnu3g9SK2tGxOsxxBYMkRBcyzx0KbjYr08Y+wt2vcZph8UYad2qFnh9CvVyXvyEsOeQA5DKAuhVDczn+/lwmJZrhpRDe+2NeFQgyqV3N5bL1uk99EUe7IuCnGqZKR7WTamwRP+do6oIMrCIahCXK+F9NTzcLwSEhEr0haBumKHda/1dEjUCbhB+W2GJhSX6R0rZU8ngiFsS1VnmM5g+N9bwQKa7624OuUAAC9iEbfpNL9trFfE3rSn7DeURUF5w+5koIjIYJEiHoB2wKsrjqpHcVqTMASW54TFheIJ7HoShMjgxSAd8FCk+Z140Gzb5ynIdSMdhE6TGdQuFZ03xHoIKOKvcUR7/ACp7JLh0BJ551jr1MMmP0Lby6LFis1z2usMYfCywavMLS+YqDWOWNwxwQKEF8LXCgLxcJeCyFqhgGER6/VgZzHgEz7CnZYoD3t5nE5Qu+ERFS4rZyeovKn8zSIsv0DLC9T1Joo6QaVVKlE/IQkKHJYhugcbQhx3sUICNB0bawKVrIuKOJWhHmrdUuBwEVEWIkFF4AZdb5nWejK7Tl+J89N5jIpjKTi5WZMgDa+jLHtZJlyfrXS67Y4d62m2bT0dEisePWQIiBGaUKSiSM7bieBXLycJo7NptTXdjUebvGJwu+U9eDgEAJNHLOJ2NnNPaZcQZan77SZNf7/J0EUzRdet/jaebJZKpeUreieHbmhCqJAEjl3UTWTgWfuOJzY30hpvGz/cXEOWHOKgWxKLhyKdw+z8UPpAh+7JHX2kGYddwXDjbIm/Gu0rsZ6VXfPcUrBbDbKHTX70Yy/vq6xuYOGcYOZjg4x91f1mDCXH5mAaBO6kcZ5qOwWiPHhmeciQm9iwh8PNTb4BKpxwYWEmVxxQjl8+UTsRfN8KmVBQhBV72UUHZpA1Ubl+1s1RHAvjPuTVKyxbXJ5FUb/kXDyr47RBtOeqmw64PpoC13qhhf/1VuiYNuzvjRn64jcO7xhCmfa2O8a91VPPrXj0sPltj4LEMdIxTgI6f5KgkRjd1i3v6McCMLnE8vrdv/ycob8JIcuiVIXjbp8I4ftsuiOXAQuHIWbnMnfUuf5OV+ffqdW8s1dD8Hr97sXFJX35MrrX7wIwuXCHIeD1uwK5ekJvvIZenISBPXsRXr8Lhg+H1WzQXgK8nP2g3Adx1k3ftPic7HH1w3A8PKqiACBmYhG3vMbt//zM0o9bXq/W6Wnlv4x3NPR3GhbD+Zkbmuv8oB/ffqd2uyUFLsQtAADES3nzPS1+gqACACSDmMISOvR6pi3XrnXD3/CEM35xQz/bjetNZpns9ISFKAAAwGRQ2YWwBQAkh3gmlE3dUybFcbf9eWf96Iikrlop+t7K0XnqBc3OzdP09AylUrGYDAAAAAAAEkgsSrHVmZLxtoOsjKCD1869aqWpfpuj5vRLys7OUXYaHlwAAAAAAKAnFnF73kzRj7s03WhewcsylFdSYK9ulG2K7qnZSdHX6xylZl/S7NM5Sqc5thcAAAAAAAAnsUwo++8fM/TtJiPXtXXCqyV0aC7LqyUMHrLwRKTxfLolY3zd3ltMKAMAAAAAALGI2/+qz0ph27p3Cs5fci35Ct5nQty618GNAr8oIpsyvMBuIG4BAAAAAEAsYQnXQtjyCgcq7Fidn2nTq1xbilv24A665dJGqMJjgtcaHeq7+aPCrwh2vBksIvZbjZS3VOm+e2A82HJxE1c5jYtx2j8B9RAooK5HZ5jnDriPJqYtBRNFLOKWX8/glpwcK8uhCNlUMsUoL3puv+XH2mJoHPhGD3xdbGIw3nZV3+e34lhLEfV+10+ePK78A8NDVzfHy2Ou27ivR0t8+T1Yew5AVGIRt5kpw1Orwi9c4NUTmmIblbwd+SIK/Jpc9bWFyqthQQiWFqngfn2m7rtxM+keoXEwrjyL67wPsR4CMGngPgJjIhZxyxO93OECvM7B2XWG/naboWZn+KozlZqidDozeoEbM/xeePs980DST54g/0BSecx1G/f1aBlmfqMswSiIZULZX37O0N9u0nKtWxUWvByawFtqiLGyPFntSepWvqr3549v1Go26Z5dxybDmFDGYQnbC4c+N+kSrb3fppW8+afove473jXufMe49b5+d7o8hLN6tiPf+c6f12nfeU72VK2e0Y6n19jfDiv9PdqgbWunxlFPetIu9ffDBdr2Pa+B4zjlnenO7wUizf1qidZd33H64gJ685qve93OPfuadOXiZQMTdP0yz9UXwbO3XqQ9WLkYZbJwuENnq1w2Xvnifsd8UJ1yHR+qnNy28HfmeYnfkb9CRmoB51Js9cqzeOz3TmOQ86o4r0sg68MxvXXkk1eZCezzMtHz1408j123o6YbRxm49umpp/q2zQ/dPSTPUarK8wqj/e/rSHa6fxc4ys4L/zy02obhtKl+57bqhDO/5Xn6zLvAY5iAvOrZ38wDd1la+cVtqYXz2MHrF3h8xOK5fT3TolyqIxJzClieZMZvGft2m6bfbzJD21hY86t61TeZjftFD0tr74j2RA/VDFnYrxVp3Y4zMm5O0SrZv58sBg+lVk5qRIVFx37l5SI1qseejaG/HQb5lW3RDO+Z++zQEa3QhhLgbzQ0dWGumc4e0YZDReiRx/HDyTpuv04r25vi6olODz7Q1s6RaLa4cRa/iUavovlOd12crpF9ZrpbJ7ToMSHBzwYLv+uXXoZ9ke/cMPPvmlY0SrkwhVWrbIyGO8jWoLKMWk5McX3DTlsUAa1svBcCaYEO/c7lYatXnsVhv18aUc/rRlc3rXLUlplqM9efwnpPTGG/+RuW/sstjjLwLvv42rYlelvKU+3Quw0YzE5NGh5l5yZMfRpem9pfXdYR5dxR8srvPvLDv9yi1S/w+IhF3M5Nt+nFTJtymeF5Z/3QvclsJAK3KG5udUKZcqOfHuw6PAS9jXeDzj6bHwWVgxA3fuWEavkSvbUTKdNysUHVY+8jg+0QiB54t9d8SsfVBuVLb819yvRuhUTPWfHunB7Q3lHD/MML87g95boqn+ioUaTl/tpiFxp7xKcD9SJtQtrge/0hiFAukuonhzciyFb/soxaTgaNoz077dODQ3E9earvd9OS5youi7Mw0co2DvtD1WcXUY7xRFdmjrp4Sgd74oFeXHXMDO8vf8PTb7qDl0GYso+hbVt6S6W8V6xmHHaGLzs3oerTUNrUkOf2Jcq5o+dV/wSVGxOhfoFHRyziNiU0ZOEJL/vVomyqI99KNmo6QlffCIH716scdXKvKPfsOWWy2eEKXB6WsXqXvLm8etwDtYWvo2dcoU/sZdl2CuJgKnRSy1PJegKUl6lYO3Q0djq87TBoqC2F4PRr3fwkkBMC6vTVdQ7HPjrkcXnjGq1zfzSG0wqLA7SGHvZoCWmD7/WHIlq51NWLCGmrZ1lGLScThy0S5wOEPp+Jb0wGKNs47A+qzzqiHKOjt8w0dfH0mKqNPC28Mf8W9JW/fRAl3YHKILDs42nblt6WKF87Ed9qiMPOPspOR1B9GkqbajJQXY5y7gHzqi+Cyi1y/QKPjVjELZPLdOjX2Ra9eSoE7tR4BC77jZvtFH25nqHrzDw9f/GSMpmM8eNI4aGTj0ZckSV8ebhUQQ7ZiO/3yfT+hrxRuadueQB46LvmOw012I7hYg5HuTY1tqpv3iyIpq8fhmCDhv7KxQs/W8ddlm76zdc47I+SxkPLt3ESV174l30cbdubhXzEe0hlGPf+OOvTY6nLw6lf4HERm7hlMfsk3aHCkxb9y/wdLT5t0vNsm6alJ3d04Qp8ptu2EYP7nV7Q/KtfjB9GCXvu+AZVPLlLiwXzkxMZJ8hxSWGHd+Tw3QK9EQ3dcjFgiZU+7PCnQG6HHAs4X06/ir5+73EDIz1RIdMdlg06+ikXHUG2hirLCOUUhSj5Gof9UepzbPeABq98kEPqLg/qQyCOMuij7KO1bRyaEOYeGtDOqGUXW30KsF9HyHO7R0+4o+Ckz3OPsp4Ps36BR0Vs4pbh8AT24M7PdOhptkPTcpUEQ/iOEhmi0E7R7X2WpnNPzG9HiFuALa3RBo+r2JRpredu1Az7aOHhuyItb4qGzmvYziLQjhCcHtBhLU8rG0rQfnmTVgtBg6jGMKM6gYMpbzr/7hvLHke6uvxkYrRBClc/+igXLQG2BpVl5HKKQsh8VfMsDvvD1ud+zjsQ1hCpet1LtLaxQvkQYSkjJ2IZOEe+g8reo23jFRw+uupHD0bapY1V/3soVF0PsjNi2cVRn6Leq4HnNmN7V951r8ldfpHOPcp6Pkj9wpsEQZdYxS3DQpbjbn+bbVLx1Q3928IV/cdvl/Sfv12MdPv3Xy/pX1/d0dOZtGHYMHBPKLNuLtGA7FlxQfw9T2h2DB9V6Jg2usdtl6jqCNb3h4fvikXRhw9yDwbaEY7KrjHbd9uyd/mEPhwGx4dxz1rO5rWOE9vySfjr9ILT3TkqKOku01ePFjYWG8wJDTINnyGw0OXiga+tIcoyajlFITBf3XkWh/1h6nOE8w4CD5E66+I2lao72lU1xk7EMnAPffuXvUfbxuFEITp9MjRB6LWjT/57hqnrQXU0UtnFVJ8i3ashzs3X5Lhmke6Oa7JYlHOPsp5Hql/yNwC6xLLOLRgxosduLPeDm/pBgXIBCYQnMMk4zwGEDKfBS2MNFu8KAADhiN1zC4aP70xiMDZQLiCJcMyme/Z/v7xZoOCl8QAAICYgbicOcx3AgGE7MGpQLmDyccdNs8d1vVijwwE9rpVd55vBAABgmCAsYYKwXi/aOHK+qhCMF5QLSA683FT31abGskwIswEATBYQtwAAAAAAIDEgLAEAAAAAACQGiFsAAAAAAJAYIG4BAAAAAEBigLgFAAAAAACJAeIWAAAAAAAkBohbAAAAAACQGCBuAQAAAABAYoC4BQAAAAAAiQHiFgAAAAAAJAaIWwAAAAAAkBggbgEAAAAAQGKAuAUAAAAAAIkB4hYAAAAAACQGiFsAAAAAAJAYIG4BAAAAAEBigLgFAAAAAACJAeIWAAAAAAAkBohbAAAAAACQGCBuAQAAAABAYoC4BQAAAAAAiQHiFgAAAAAAJAaIWwAAAAAAkBggbgEAAAAAQGKAuAUAAAAAAIkB4hYAAAAAACQGiFsAAAAAAJAYIG4BAAAAAEBigLgFAAAAAAAJgej/AXOk7dD4uwDgAAAAAElFTkSuQmCC;" parent="BgiR5zi2WwaI1OMkJMpC-19" vertex="1">
          <mxGeometry x="2" y="230" width="695" height="88" as="geometry" />
        </mxCell>
        <mxCell id="BgiR5zi2WwaI1OMkJMpC-17" value="&lt;h1 style=&quot;font-size: 16px;&quot;&gt;&lt;font color=&quot;#ffffff&quot; style=&quot;font-size: 16px;&quot;&gt;MetadataExtractor&lt;/font&gt;&lt;/h1&gt;&lt;div style=&quot;font-size: 16px;&quot;&gt;&lt;font color=&quot;#ffffff&quot; style=&quot;font-size: 16px;&quot;&gt;이미지, 비디오 및 오디오 파일에서 메타데이터를 쉽고 효율적으로 읽습니다.&lt;br style=&quot;font-family: noto, notojp, notokr, Helvetica, &amp;quot;Microsoft YaHei&amp;quot;, &amp;quot;Apple SD Gothic Neo&amp;quot;, &amp;quot;Malgun Gothic&amp;quot;, &amp;quot;맑은 고딕&amp;quot;, Dotum, 돋움, sans-serif;&quot;&gt;&lt;span style=&quot;-webkit-font-smoothing: antialiased; margin: 0px; padding: 0px; font-family: noto, notojp, notokr, Helvetica, &amp;quot;Microsoft YaHei&amp;quot;, &amp;quot;Apple SD Gothic Neo&amp;quot;, &amp;quot;Malgun Gothic&amp;quot;, &amp;quot;맑은 고딕&amp;quot;, Dotum, 돋움, sans-serif; -webkit-tap-highlight-color: transparent;&quot;&gt;&lt;/span&gt;&lt;br style=&quot;font-family: noto, notojp, notokr, Helvetica, &amp;quot;Microsoft YaHei&amp;quot;, &amp;quot;Apple SD Gothic Neo&amp;quot;, &amp;quot;Malgun Gothic&amp;quot;, &amp;quot;맑은 고딕&amp;quot;, Dotum, 돋움, sans-serif;&quot;&gt;&lt;span style=&quot;-webkit-font-smoothing: antialiased; -webkit-tap-highlight-color: transparent; margin: 0px; padding: 0px; font-family: noto, notojp, notokr, Helvetica, &amp;quot;Microsoft YaHei&amp;quot;, &amp;quot;Apple SD Gothic Neo&amp;quot;, &amp;quot;Malgun Gothic&amp;quot;, &amp;quot;맑은 고딕&amp;quot;, Dotum, 돋움, sans-serif;&quot;&gt;메타데이터 추출기는 JPEG, TIFF WebP, PSD, PNG, BMP, PNG, ICO, PCX 메타데이터를 JPEG, TIFF WebP, PSD, PNG, BMP, GIF, ICO, PCX 및 카메라 RAW 파일에서 읽는다.&lt;/span&gt;&lt;br style=&quot;font-family: noto, notojp, notokr, Helvetica, &amp;quot;Microsoft YaHei&amp;quot;, &amp;quot;Apple SD Gothic Neo&amp;quot;, &amp;quot;Malgun Gothic&amp;quot;, &amp;quot;맑은 고딕&amp;quot;, Dotum, 돋움, sans-serif;&quot;&gt;&lt;span style=&quot;-webkit-font-smoothing: antialiased; -webkit-tap-highlight-color: transparent; margin: 0px; padding: 0px; font-family: noto, notojp, notokr, Helvetica, &amp;quot;Microsoft YaHei&amp;quot;, &amp;quot;Apple SD Gothic Neo&amp;quot;, &amp;quot;Malgun Gothic&amp;quot;, &amp;quot;맑은 고딕&amp;quot;, Dotum, 돋움, sans-serif;&quot;&gt;MP4, M4V, 3G2, 3GP와 같은 MOV 및 관련 QuickTime 비디오 포맷이 지원되며 MP3 및 WAV 오디오 파일도 지원된다.&lt;/span&gt;&lt;br style=&quot;font-family: noto, notojp, notokr, Helvetica, &amp;quot;Microsoft YaHei&amp;quot;, &amp;quot;Apple SD Gothic Neo&amp;quot;, &amp;quot;Malgun Gothic&amp;quot;, &amp;quot;맑은 고딕&amp;quot;, Dotum, 돋움, sans-serif;&quot;&gt;&lt;span style=&quot;-webkit-font-smoothing: antialiased; margin: 0px; padding: 0px; font-family: noto, notojp, notokr, Helvetica, &amp;quot;Microsoft YaHei&amp;quot;, &amp;quot;Apple SD Gothic Neo&amp;quot;, &amp;quot;Malgun Gothic&amp;quot;, &amp;quot;맑은 고딕&amp;quot;, Dotum, 돋움, sans-serif; -webkit-tap-highlight-color: transparent;&quot;&gt;&lt;/span&gt;&lt;br style=&quot;font-family: noto, notojp, notokr, Helvetica, &amp;quot;Microsoft YaHei&amp;quot;, &amp;quot;Apple SD Gothic Neo&amp;quot;, &amp;quot;Malgun Gothic&amp;quot;, &amp;quot;맑은 고딕&amp;quot;, Dotum, 돋움, sans-serif;&quot;&gt;&lt;span style=&quot;-webkit-font-smoothing: antialiased; -webkit-tap-highlight-color: transparent; margin: 0px; padding: 0px; font-family: noto, notojp, notokr, Helvetica, &amp;quot;Microsoft YaHei&amp;quot;, &amp;quot;Apple SD Gothic Neo&amp;quot;, &amp;quot;Malgun Gothic&amp;quot;, &amp;quot;맑은 고딕&amp;quot;, Dotum, 돋움, sans-serif;&quot;&gt;카메라 제조업체별 지원은 아그파, 캐논, 카시오, DJI, 엡손, 후지필름, 코닥, 교세라, 라이카, 미놀타, 니콘, 올림푸스, 파나소닉, 펜탁스, 레코닉스, 산요, 시그마/포본 및 소니 모델에 제공됩니다&lt;/span&gt;&lt;/font&gt;&lt;br&gt;&lt;/div&gt;" style="text;html=1;strokeColor=none;fillColor=none;spacing=5;spacingTop=-20;whiteSpace=wrap;overflow=hidden;rounded=0;" parent="BgiR5zi2WwaI1OMkJMpC-19" vertex="1">
          <mxGeometry width="770" height="220" as="geometry" />
        </mxCell>
      </root>
    </mxGraphModel>
  </diagram>
  <diagram id="MEkb4jTFUMqa6i9uZced" name="Part4">
    <mxGraphModel dx="1827" dy="599" grid="1" gridSize="10" guides="1" tooltips="1" connect="1" arrows="1" fold="1" page="1" pageScale="1" pageWidth="827" pageHeight="1169" math="0" shadow="0">
      <root>
        <mxCell id="0" />
        <mxCell id="1" parent="0" />
        <mxCell id="9Wl8x5HHRss-MrsqiuX4-1" value="&lt;p style=&quot;line-height: 50%; font-size: 16px;&quot;&gt;&lt;font style=&quot;font-size: 16px;&quot;&gt;&amp;nbsp; 1. Add Loading Screen with a Progressbar&lt;/font&gt;&lt;/p&gt;&lt;p style=&quot;line-height: 50%; font-size: 16px;&quot;&gt;&lt;font style=&quot;font-size: 16px;&quot;&gt;&amp;nbsp; 2. Keep the Loading Screen out of the TitleBar&lt;/font&gt;&lt;/p&gt;&lt;p style=&quot;line-height: 50%; font-size: 16px;&quot;&gt;&lt;font style=&quot;font-size: 16px;&quot;&gt;&amp;nbsp; 3. Fixing the output folder format&lt;/font&gt;&lt;/p&gt;&lt;p style=&quot;line-height: 50%; font-size: 16px;&quot;&gt;&lt;font style=&quot;font-size: 16px;&quot;&gt;&amp;nbsp; 4. Spreading Photo List are&lt;/font&gt;&lt;/p&gt;&lt;p style=&quot;line-height: 50%; font-size: 16px;&quot;&gt;&lt;font style=&quot;font-size: 16px;&quot;&gt;&amp;nbsp; 5. Finishing small backlogs&lt;/font&gt;&lt;/p&gt;&lt;p style=&quot;line-height: 50%; font-size: 16px;&quot;&gt;&lt;font style=&quot;font-size: 16px;&quot;&gt;&amp;nbsp; 6. Merging branch&lt;/font&gt;&lt;/p&gt;&lt;p style=&quot;line-height: 50%; font-size: 16px;&quot;&gt;&lt;font style=&quot;font-size: 16px;&quot;&gt;&amp;nbsp; 7. UpComing / Backlogs&lt;/font&gt;&lt;/p&gt;" style="rounded=0;whiteSpace=wrap;html=1;align=left;" vertex="1" parent="1">
          <mxGeometry x="-800" y="80" width="760" height="190" as="geometry" />
        </mxCell>
        <UserObject label="https://youtu.be/n1AzaFCCi9Y?si=GKp55oryxa6DDQRQ" link="https://youtu.be/n1AzaFCCi9Y?si=GKp55oryxa6DDQRQ" id="9Wl8x5HHRss-MrsqiuX4-2">
          <mxCell style="text;whiteSpace=wrap;fontSize=16;" vertex="1" parent="1">
            <mxGeometry x="-800" y="20" width="610" height="40" as="geometry" />
          </mxCell>
        </UserObject>
        <mxCell id="9Wl8x5HHRss-MrsqiuX4-3" value="&#xa;  2. Keep the Loading Screen out of the TitleBar&#xa;  3. Fixing the output folder format&#xa;  4. Spreading Photo List are&#xa;  5. Finishing small backlogs&#xa;  6. Merging branch&#xa;  7. UpComing / Backlogs" style="text;whiteSpace=wrap;" vertex="1" parent="1">
          <mxGeometry x="-810" y="430" width="290" height="120" as="geometry" />
        </mxCell>
        <mxCell id="NDkLCp8pcPL5OzaokHnj-1" value="&lt;font style=&quot;font-size: 16px;&quot;&gt;&lt;span style=&quot;white-space: pre;&quot;&gt;&#x9;&lt;/span&gt;Add Loading Screen with a Progressbar&lt;/font&gt;" style="rounded=1;whiteSpace=wrap;html=1;align=left;" vertex="1" parent="1">
          <mxGeometry x="-800" y="280" width="360" height="40" as="geometry" />
        </mxCell>
        <mxCell id="NDkLCp8pcPL5OzaokHnj-2" value="&lt;font style=&quot;font-size: 16px;&quot;&gt;1.It&#39;s loading the images but we can&#39;t see what&#39;s going on.&lt;br&gt;2.Let&#39;s show a Loading Screen whih a ProgressBar.&lt;br&gt;&lt;/font&gt;" style="text;html=1;strokeColor=none;fillColor=none;align=left;verticalAlign=middle;whiteSpace=wrap;rounded=0;" vertex="1" parent="1">
          <mxGeometry x="-801" y="350" width="761" height="70" as="geometry" />
        </mxCell>
      </root>
    </mxGraphModel>
  </diagram>
</mxfile>
